<?xml version="1.0" encoding="utf-8"?>
<!-- Uploaded to: SVG Repo, www.svgrepo.com, Generator: SVG Repo Mixer Tools -->
<svg width="800px" height="800px" viewBox="0 0 1024 1024" class="icon"  version="1.1" xmlns="http://www.w3.org/2000/svg"><path d="M384.9 357.4c0 69.1-39.2 97.4-87.6 97.4s-87.6-28.3-87.6-97.4 87.6-180.5 87.6-180.5 87.6 111.4 87.6 180.5z" fill="#60C13D" /><path d="M297.4 464.7c-28.2 0-52-8.9-69-25.7-19-18.8-28.6-46.3-28.6-81.7 0-71.7 86-182 89.7-186.7 1.9-2.4 4.8-3.8 7.9-3.8s6 1.4 7.9 3.8c3.7 4.7 89.7 115 89.7 186.7 0 35.4-9.6 62.9-28.6 81.7-17 16.8-40.9 25.7-69 25.7z m0-271.2c-21.1 28.9-77.6 110.9-77.6 163.9 0 29.9 7.6 52.6 22.7 67.5 13.1 13 32.1 19.9 54.9 19.9s41.8-6.9 54.9-19.9c15.1-14.9 22.7-37.6 22.7-67.5-0.1-53-56.5-135-77.6-163.9z" fill="" /><path d="M297.4 646.6c-5.5 0-10-4.5-10-10V348.1c0-5.5 4.5-10 10-10s10 4.5 10 10v288.5c0 5.5-4.5 10-10 10z" fill="" /><path d="M647 218.4c0 69.1-39.2 97.4-87.6 97.4s-87.6-28.3-87.6-97.4 87.6-180.5 87.6-180.5S647 149.3 647 218.4z" fill="#60C13D" /><path d="M559.4 325.8c-28.2 0-52-8.9-69-25.7-19-18.8-28.6-46.3-28.6-81.7 0-71.7 86-182 89.7-186.7 1.9-2.4 4.8-3.8 7.9-3.8s6 1.4 7.9 3.8c3.7 4.7 89.7 115 89.7 186.7 0 35.4-9.6 62.9-28.6 81.7-16.9 16.8-40.8 25.7-69 25.7z m0-271.3c-21.1 28.9-77.6 110.9-77.6 163.9 0 29.9 7.6 52.6 22.7 67.5 13.1 13 32.1 19.9 54.9 19.9 22.8 0 41.8-6.9 54.9-19.9 15.1-14.9 22.7-37.6 22.7-67.5 0-53-56.4-135-77.6-163.9z" fill="" /><path d="M559.4 817.8c-5.5 0-10-4.5-10-10v-586c0-5.5 4.5-10 10-10s10 4.5 10 10v586c0 5.6-4.4 10-10 10z" fill="" /><path d="M950.5 402.3c0 69.1-39.2 97.4-87.6 97.4s-87.6-28.3-87.6-97.4 87.6-180.5 87.6-180.5 87.6 111.5 87.6 180.5z" fill="#60C13D" /><path d="M862.9 509.7c-28.2 0-52-8.9-69-25.7-19-18.8-28.6-46.3-28.6-81.7 0-71.7 86-182 89.7-186.7 1.9-2.4 4.8-3.8 7.9-3.8s6 1.4 7.9 3.8c3.7 4.7 89.7 115 89.7 186.7 0 35.4-9.6 62.9-28.6 81.7-17 16.8-40.8 25.7-69 25.7z m0-271.2c-21.1 28.9-77.6 110.9-77.6 163.9 0 29.9 7.6 52.6 22.7 67.5 13.1 13 32.1 19.9 54.9 19.9s41.8-6.9 54.9-19.9c15.1-14.9 22.7-37.6 22.7-67.5 0-53-56.5-135-77.6-163.9z" fill="" /><path d="M862.9 834.6c-5.5 0-10-4.5-10-10V405.8c0-5.5 4.5-10 10-10s10 4.5 10 10v418.8c0 5.5-4.5 10-10 10z" fill="" /><path d="M108.1 899.9h101.2s172.3 77.5 319.3 78.7c201 1.7 423.2-130 433.5-138 46.6-35.8 64.9-138.7-117-95.4-181.9 43.3-306.3 42.2-355.5-12.7-36.2-40.4 80-52.1 143.5-55.4 30.1-1.6 96.5-26.2 96.5-62 0-43.6-61.8-56.4-148.9-56.4-156.1 0-112.9-30.9-203.7-26-90.9 5-177.8 101.3-177.8 101.3h-91v265.9z" fill="#F7DDAD" /><path d="M532.3 988.6h-3.8c-77.2-0.6-161-22.3-217.8-40.3-53.9-17.1-94.4-34.4-103.6-38.4H108c-5.5 0-10-4.5-10-10V634c0-5.5 4.5-10 10-10h86.7c7.2-7.6 26.5-26.9 53.2-46.8 45.5-34 88.7-52.2 128.4-54.4 42.9-2.3 58 3.2 75.5 9.7 19.9 7.3 44.6 16.3 128.8 16.3 48.9 0 85 4 110.3 12.3 32.3 10.6 48.7 28.8 48.7 54 0 19.7-14.6 37.9-42.3 52.6-20 10.6-45.6 18.4-63.7 19.3-127.4 6.9-139.6 27.7-140.6 30-1.1 2.6 2.1 6.7 4 8.9 22.2 24.8 62.8 38.2 120.8 39.8 58.1 1.7 133.7-8.5 224.9-30.2 43.9-10.5 79.7-13.3 106.3-8.4 17.1 3.1 39.5 11.3 49.6 32.5 14.3 30.1-4.2 68.9-30.4 89-6.5 5-65.9 40.3-147.5 73.9-73.7 30.3-183.1 66.1-288.4 66.1z m-414.2-98.7h91.2c1.4 0 2.8 0.3 4.1 0.9 1.7 0.8 172.1 76.7 315.3 77.8 56.8 0.5 152.1-10.3 283.9-64.5 83.7-34.4 139.7-68.6 143.4-71.4 19.5-15 34.1-44.5 24.5-64.5-12.2-25.6-60.7-30.5-133.2-13.2-92.9 22.1-170.3 32.5-230.1 30.8-63.7-1.8-109.1-17.5-135.1-46.5-11.3-12.6-10.4-23.3-7.6-30 6.1-14.7 27.2-25 66.5-32.3 30.6-5.7 66.7-8.5 91.5-9.8 29-1.5 87-25.1 87-52 0-31.2-45.4-46.4-138.9-46.4-87.7 0-114.3-9.7-135.7-17.6-16.1-5.9-28.8-10.5-67.5-8.5-85.5 4.6-170 96.9-170.8 97.9-1.9 2.1-4.6 3.3-7.4 3.3h-81v246z" fill="" /><path d="M124 900.5H29.1l0.5-263.9h94.9z" fill="#44C0C6" /><path d="M124 910.5H29.1c-2.7 0-5.2-1.1-7.1-2.9-1.9-1.9-2.9-4.4-2.9-7.1l0.4-263.9c0-5.5 4.5-10 10-10h94.9c2.7 0 5.2 1.1 7.1 2.9 1.9 1.9 2.9 4.4 2.9 7.1l-0.4 263.9c0 5.5-4.4 10-10 10z m-84.9-20H114l0.4-243.9H39.5l-0.4 243.9z" fill="" /></svg>