<?xml version="1.0" encoding="utf-8"?>
<!-- Generator: Adobe Illustrator 27.5.0, SVG Export Plug-In . SVG Version: 6.00 Build 0)  -->
<svg version="1.1" xmlns="http://www.w3.org/2000/svg" xmlns:xlink="http://www.w3.org/1999/xlink" x="0px" y="0px"
	 viewBox="0 0 500 500" style="enable-background:new 0 0 500 500;" xml:space="preserve">
<g id="Background_Complete">
	<rect x="416.779" y="398.494" style="fill:#EBEBEB;" width="33.122" height="0.25"/>
	<rect x="322.527" y="401.208" style="fill:#EBEBEB;" width="8.693" height="0.25"/>
	<rect x="396.586" y="389.208" style="fill:#EBEBEB;" width="19.192" height="0.25"/>
	<rect x="52.459" y="390.888" style="fill:#EBEBEB;" width="43.193" height="0.25"/>
	<rect x="104.556" y="390.888" style="fill:#EBEBEB;" width="6.333" height="0.25"/>
	<rect x="131.471" y="395.111" style="fill:#EBEBEB;" width="93.676" height="0.25"/>
	<path style="fill:#EBEBEB;" d="M237.014,337.8H43.915c-3.147,0-5.708-2.561-5.708-5.708V60.66c0-3.147,2.561-5.708,5.708-5.708
		h193.099c3.146,0,5.707,2.561,5.707,5.708v271.432C242.721,335.239,240.16,337.8,237.014,337.8z M43.915,55.203
		c-3.01,0-5.458,2.448-5.458,5.458v271.432c0,3.01,2.448,5.458,5.458,5.458h193.099c3.009,0,5.457-2.448,5.457-5.458V60.66
		c0-3.009-2.448-5.458-5.457-5.458H43.915z"/>
	<path style="fill:#EBEBEB;" d="M453.31,337.8H260.212c-3.147,0-5.707-2.561-5.707-5.708V60.66c0-3.147,2.561-5.708,5.707-5.708
		H453.31c3.148,0,5.708,2.561,5.708,5.708v271.432C459.019,335.239,456.458,337.8,453.31,337.8z M260.212,55.203
		c-3.009,0-5.457,2.448-5.457,5.458v271.432c0,3.01,2.448,5.458,5.457,5.458H453.31c3.01,0,5.458-2.448,5.458-5.458V60.66
		c0-3.009-2.448-5.458-5.458-5.458H260.212z"/>
	<rect y="382.398" style="fill:#EBEBEB;" width="500" height="0.25"/>
	<g>
		<g>
			<g>
				<rect x="384.406" y="71.373" style="fill:#FAFAFA;" width="71.254" height="241.711"/>
				<g>
					<rect x="368.394" y="156.933" style="fill:#E0E0E0;" width="89.082" height="154.037"/>
					<polygon style="fill:#E0E0E0;" points="385.501,135.407 385.501,174.04 392.526,174.04 433.344,174.04 440.368,174.04 
						440.368,135.407 					"/>
					<rect x="374.096" y="162.635" style="fill:#FAFAFA;" width="11.405" height="11.405"/>
					<rect x="396.187" y="162.635" style="fill:#FAFAFA;" width="11.405" height="11.405"/>
					<rect x="418.278" y="162.635" style="fill:#FAFAFA;" width="11.405" height="11.405"/>
					<rect x="440.368" y="162.635" style="fill:#F0F0F0;" width="11.405" height="11.405"/>
					<rect x="374.096" y="183.358" style="fill:#F0F0F0;" width="11.405" height="11.405"/>
					<rect x="396.187" y="183.358" style="fill:#F0F0F0;" width="11.405" height="11.405"/>
					<rect x="418.278" y="183.358" style="fill:#FAFAFA;" width="11.405" height="11.405"/>
					<rect x="440.368" y="183.358" style="fill:#FAFAFA;" width="11.405" height="11.405"/>
					<rect x="374.096" y="204.08" style="fill:#F0F0F0;" width="11.405" height="11.405"/>
					<rect x="396.187" y="204.08" style="fill:#FAFAFA;" width="11.405" height="11.405"/>
					<rect x="418.278" y="204.08" style="fill:#FAFAFA;" width="11.405" height="11.405"/>
					<rect x="396.187" y="144.724" style="fill:#FAFAFA;" width="11.405" height="11.405"/>
					<rect x="418.278" y="144.724" style="fill:#F0F0F0;" width="11.405" height="11.405"/>
					<rect x="440.368" y="204.08" style="fill:#F0F0F0;" width="11.405" height="11.405"/>
					<rect x="374.096" y="224.803" style="fill:#FAFAFA;" width="11.405" height="11.405"/>
					<rect x="396.187" y="224.803" style="fill:#F0F0F0;" width="11.405" height="11.405"/>
					<rect x="418.278" y="224.803" style="fill:#F0F0F0;" width="11.405" height="11.405"/>
					<rect x="440.368" y="224.803" style="fill:#FAFAFA;" width="11.405" height="11.405"/>
					<rect x="374.096" y="245.525" style="fill:#F0F0F0;" width="11.405" height="11.405"/>
					<rect x="396.187" y="245.525" style="fill:#FAFAFA;" width="11.405" height="11.405"/>
					<rect x="418.278" y="245.525" style="fill:#FAFAFA;" width="11.405" height="11.405"/>
					<rect x="440.368" y="245.525" style="fill:#F0F0F0;" width="11.405" height="11.405"/>
					<rect x="374.096" y="266.248" style="fill:#F0F0F0;" width="11.405" height="11.405"/>
					<rect x="396.187" y="266.248" style="fill:#FAFAFA;" width="11.405" height="11.405"/>
					<rect x="418.278" y="266.248" style="fill:#F0F0F0;" width="11.405" height="11.405"/>
					<rect x="440.368" y="266.248" style="fill:#FAFAFA;" width="11.405" height="11.405"/>
					<rect x="374.096" y="286.97" style="fill:#FAFAFA;" width="11.405" height="11.405"/>
					<rect x="396.187" y="286.97" style="fill:#FAFAFA;" width="11.405" height="11.405"/>
					<rect x="418.278" y="286.97" style="fill:#F0F0F0;" width="11.405" height="11.405"/>
					<rect x="440.368" y="286.97" style="fill:#F0F0F0;" width="11.405" height="11.405"/>
				</g>
				<rect x="384.265" y="71.373" style="opacity:0.1;fill:#FFFFFF;" width="71.254" height="241.711"/>
				<g style="opacity:0.3;">
					<polygon style="fill:#FFFFFF;" points="448.548,71.373 425.831,71.373 400.978,313.084 423.695,313.084 					"/>
				</g>
				<rect x="383.81" y="68.308" style="fill:#E0E0E0;" width="72.447" height="6.13"/>
				<rect x="383.81" y="310.97" style="fill:#EBEBEB;" width="72.447" height="6.13"/>
				<g>
					<path style="fill:#EBEBEB;" d="M459.073,322.325h-78.542V62.321h78.542V322.325z M386.519,316.338h66.567V68.308h-66.567
						V316.338z"/>
				</g>
			</g>
			<g>
				<rect x="306.691" y="71.373" style="fill:#FAFAFA;" width="71.254" height="241.711"/>
				<g>
					<rect x="311.622" y="237.038" style="fill:#E6E6E6;" width="60.929" height="74.767"/>
					<polygon style="fill:#E6E6E6;" points="367.247,245.33 353.074,245.33 349.173,245.33 345.273,245.33 345.273,253.131 
						349.173,253.131 353.074,253.131 367.247,253.131 					"/>
					<polygon style="fill:#FAFAFA;" points="367.247,260.44 353.074,260.44 349.173,260.44 345.273,260.44 345.273,268.24 
						349.173,268.24 353.074,268.24 367.247,268.24 					"/>
					<polygon style="fill:#E6E6E6;" points="367.247,275.549 353.074,275.549 349.173,275.549 345.273,275.549 345.273,283.349 
						349.173,283.349 353.074,283.349 367.247,283.349 					"/>
					<polygon style="fill:#FAFAFA;" points="367.247,290.658 353.074,290.658 347.046,290.658 345.273,290.658 345.273,298.459 
						347.046,298.459 353.074,298.459 367.247,298.459 					"/>
					<polygon style="fill:#FAFAFA;" points="338.9,245.33 324.727,245.33 320.827,245.33 316.926,245.33 316.926,253.131 
						320.827,253.131 324.727,253.131 338.9,253.131 					"/>
					<polygon style="fill:#FAFAFA;" points="338.9,260.44 324.727,260.44 319.227,260.44 316.926,260.44 316.926,268.24 
						319.227,268.24 324.727,268.24 338.9,268.24 					"/>
					<polygon style="fill:#E6E6E6;" points="338.9,275.549 324.727,275.549 320.827,275.549 316.926,275.549 316.926,283.349 
						320.827,283.349 324.727,283.349 338.9,283.349 					"/>
					<polygon style="fill:#FAFAFA;" points="338.9,290.658 324.727,290.658 320.827,290.658 316.926,290.658 316.926,298.459 
						320.827,298.459 324.727,298.459 338.9,298.459 					"/>
				</g>
				<rect x="306.46" y="71.373" style="opacity:0.1;fill:#FFFFFF;" width="71.254" height="241.711"/>
				<g style="opacity:0.3;">
					<polygon style="fill:#FFFFFF;" points="370.832,71.373 348.115,71.373 323.263,313.084 345.98,313.084 					"/>
				</g>
				<rect x="306.094" y="68.308" style="fill:#E0E0E0;" width="72.447" height="6.13"/>
				<rect x="306.094" y="310.97" style="fill:#EBEBEB;" width="72.447" height="6.13"/>
				<g>
					<path style="fill:#EBEBEB;" d="M381.357,322.325h-78.542V62.321h78.542V322.325z M308.803,316.338h66.567V68.308h-66.567
						V316.338z"/>
				</g>
			</g>
		</g>
		<g>
			<g>
				<rect x="120.005" y="71.373" style="fill:#FAFAFA;" width="71.254" height="241.711"/>
				<rect x="119.864" y="71.373" style="opacity:0.1;fill:#FFFFFF;" width="71.254" height="241.711"/>
				<g style="opacity:0.3;">
					<polygon style="fill:#FFFFFF;" points="184.146,71.373 161.429,71.373 136.577,313.084 159.294,313.084 					"/>
				</g>
				<rect x="119.408" y="68.308" style="fill:#E0E0E0;" width="72.447" height="6.13"/>
				<rect x="119.408" y="310.97" style="fill:#EBEBEB;" width="72.447" height="6.13"/>
				<g>
					<path style="fill:#EBEBEB;" d="M194.671,322.325H116.13V62.321h78.542V322.325z M122.117,316.338h66.567V68.308h-66.567
						V316.338z"/>
				</g>
			</g>
			<g>
				<rect x="42.394" y="71.373" style="fill:#FAFAFA;" width="71.254" height="241.711"/>
				<g>
					<rect x="47.754" y="173.73" style="fill:#E6E6E6;" width="55.147" height="46.278"/>
					<rect x="51.284" y="179.498" style="fill:#FAFAFA;" width="7.061" height="7.061"/>
					<rect x="64.96" y="179.498" style="fill:#FAFAFA;" width="7.06" height="7.061"/>
					<rect x="78.635" y="179.498" style="fill:#FAFAFA;" width="7.06" height="7.061"/>
					<rect x="92.311" y="179.498" style="fill:#FAFAFA;" width="7.061" height="7.061"/>
					<rect x="51.284" y="192.326" style="fill:#FAFAFA;" width="7.061" height="7.061"/>
					<rect x="64.96" y="192.326" style="fill:#FAFAFA;" width="7.06" height="7.061"/>
					<rect x="78.635" y="192.326" style="fill:#FAFAFA;" width="7.06" height="7.061"/>
					<rect x="92.311" y="192.326" style="fill:#E6E6E6;" width="7.061" height="7.061"/>
					<rect x="51.284" y="205.155" style="fill:#E6E6E6;" width="7.061" height="7.06"/>
					<rect x="64.96" y="205.155" style="fill:#E6E6E6;" width="7.06" height="7.06"/>
					<rect x="78.635" y="205.155" style="fill:#FAFAFA;" width="7.06" height="7.06"/>
					<rect x="92.311" y="205.155" style="fill:#E6E6E6;" width="7.061" height="7.06"/>
				</g>
				<g>
					<rect x="47.754" y="219.427" style="fill:#E6E6E6;" width="55.147" height="46.278"/>
					<rect x="51.284" y="225.195" style="fill:#FAFAFA;" width="7.061" height="7.061"/>
					<rect x="64.96" y="225.195" style="fill:#FAFAFA;" width="7.06" height="7.061"/>
					<rect x="78.635" y="225.195" style="fill:#FAFAFA;" width="7.06" height="7.061"/>
					<rect x="92.311" y="225.195" style="fill:#FAFAFA;" width="7.061" height="7.061"/>
					<rect x="51.284" y="238.023" style="fill:#FAFAFA;" width="7.061" height="7.061"/>
					<rect x="64.96" y="238.023" style="fill:#FAFAFA;" width="7.06" height="7.061"/>
					<rect x="78.635" y="238.023" style="fill:#FAFAFA;" width="7.06" height="7.061"/>
					<rect x="92.311" y="238.023" style="fill:#E6E6E6;" width="7.061" height="7.061"/>
					<rect x="51.284" y="250.851" style="fill:#E6E6E6;" width="7.061" height="7.061"/>
					<rect x="64.96" y="250.851" style="fill:#E6E6E6;" width="7.06" height="7.061"/>
					<rect x="78.635" y="250.851" style="fill:#FAFAFA;" width="7.06" height="7.061"/>
					<rect x="92.311" y="250.851" style="fill:#E6E6E6;" width="7.061" height="7.061"/>
				</g>
				<g>
					<rect x="47.754" y="265.124" style="fill:#E6E6E6;" width="55.147" height="46.278"/>
					<rect x="51.284" y="270.892" style="fill:#FAFAFA;" width="7.061" height="7.061"/>
					<rect x="64.96" y="270.892" style="fill:#FAFAFA;" width="7.06" height="7.061"/>
					<rect x="78.635" y="270.892" style="fill:#FAFAFA;" width="7.06" height="7.061"/>
					<rect x="92.311" y="270.892" style="fill:#FAFAFA;" width="7.061" height="7.061"/>
					<rect x="51.284" y="283.72" style="fill:#FAFAFA;" width="7.061" height="7.061"/>
					<rect x="64.96" y="283.72" style="fill:#FAFAFA;" width="7.06" height="7.061"/>
					<rect x="78.635" y="283.72" style="fill:#FAFAFA;" width="7.06" height="7.061"/>
					<rect x="92.311" y="283.72" style="fill:#E6E6E6;" width="7.061" height="7.061"/>
					<rect x="51.284" y="296.548" style="fill:#E6E6E6;" width="7.061" height="7.061"/>
					<rect x="64.96" y="296.548" style="fill:#E6E6E6;" width="7.06" height="7.061"/>
					<rect x="78.635" y="296.548" style="fill:#FAFAFA;" width="7.06" height="7.061"/>
					<rect x="92.311" y="296.548" style="fill:#E6E6E6;" width="7.061" height="7.061"/>
				</g>
				<rect x="41.447" y="71.373" style="opacity:0.1;fill:#FFFFFF;" width="71.254" height="241.711"/>
				<g style="opacity:0.3;">
					<polygon style="fill:#FFFFFF;" points="106.535,71.373 83.818,71.373 58.966,313.084 81.683,313.084 					"/>
				</g>
				<rect x="41.797" y="68.308" style="fill:#E0E0E0;" width="72.447" height="6.13"/>
				<rect x="41.797" y="310.97" style="fill:#EBEBEB;" width="72.447" height="6.13"/>
				<g>
					<path style="fill:#EBEBEB;" d="M117.06,322.325H38.519V62.321h78.542V322.325z M44.506,316.338h66.567V68.308H44.506V316.338z"
						/>
				</g>
			</g>
		</g>
	</g>
	<g>
		<g>
			<g>
				<g>
					<g>
						<path style="fill:#E0E0E0;" d="M243.522,354.612l-0.801,0.099c-0.05-0.407-4.911-41.088,5.117-74.332
							c9.967-33.041,3.104-54.095,3.033-54.303l0.765-0.259c0.071,0.212,7.015,21.51-3.026,54.796
							C238.632,313.69,243.472,354.206,243.522,354.612z"/>
					</g>
					<g>
						<g>
							<path style="fill:#E0E0E0;" d="M252.299,230.606c-1.73-2.07-4.129-3.549-6.756-4.165l0.184-0.786
								c2.796,0.655,5.35,2.23,7.192,4.434L252.299,230.606z"/>
						</g>
					</g>
					<g>
						
							<rect x="253.448" y="234.585" transform="matrix(0.8706 -0.4919 0.4919 0.8706 -82.64 155.7358)" style="fill:#E0E0E0;" width="2.653" height="0.807"/>
					</g>
					<g>
						<path style="fill:#E0E0E0;" d="M251.432,252.727c-1.985-4.554-5.77-8.225-10.381-10.072l0.3-0.749
							c4.807,1.926,8.751,5.752,10.822,10.499L251.432,252.727z"/>
					</g>
					<g>
						<path style="fill:#E0E0E0;" d="M249.266,278.143l-0.807,0.01c-0.04-3.283-1.601-6.458-4.177-8.494l0.501-0.633
							C247.548,271.211,249.224,274.619,249.266,278.143z"/>
					</g>
					<g>
						<path style="fill:#E0E0E0;" d="M247.466,284.641l-0.752-0.296c0.809-2.055,2.526-3.749,4.591-4.531l0.286,0.755
							C249.736,281.272,248.193,282.794,247.466,284.641z"/>
					</g>
					<g>
						<path style="fill:#E0E0E0;" d="M242.235,325.873l-0.621-0.515c0.982-1.185,1.725-5.694,2.124-8.117
							c0.095-0.579,0.177-1.073,0.244-1.43l0.793,0.15c-0.067,0.352-0.147,0.839-0.241,1.41
							C243.938,320.989,243.269,324.625,242.235,325.873z"/>
					</g>
					<g>
						<path style="fill:#E0E0E0;" d="M241.768,338.821c-1.042-3.189-4.355-5.476-7.706-5.32l-0.038-0.806
							c3.701-0.173,7.36,2.353,8.511,5.875L241.768,338.821z"/>
					</g>
					<g>
						
							<rect x="241.129" y="350.3" transform="matrix(0.6663 -0.7456 0.7456 0.6663 -179.6215 299.9931)" style="fill:#E0E0E0;" width="8.538" height="0.807"/>
					</g>
				</g>
				<g>
					<path style="fill:#F0F0F0;" d="M251.959,305.749c1.289,4.173-7.703,12.117-7.703,12.117s-11.906-1.489-13.195-5.661
						c-1.289-4.173,1.726-11.001,7.497-12.783C244.329,297.638,250.67,301.576,251.959,305.749z"/>
					<path style="fill:#EBEBEB;" d="M261.938,255.108c-1.141,4.432-9.657,7.579-9.657,7.579s-5.937-6.869-4.796-11.3
						c1.141-4.432,5.848-9.315,9.839-8.287C261.315,244.127,263.078,250.676,261.938,255.108z"/>
					<path style="fill:#F5F5F5;" d="M227.766,321.333c5.347,2.082,8.625,11.539,8.625,11.539s-8.81,4.751-14.157,2.669
						c-5.347-2.082-11.007-7.949-9.479-11.872C214.282,319.746,222.419,319.251,227.766,321.333z"/>
					<path style="fill:#E6E6E6;" d="M239.49,269.302c1.13,0.839,2.296,1.695,3.654,2.064c1.358,0.369,2.974,0.143,3.897-0.919
						c1.144-1.317,0.837-3.358,0.117-4.947c-1.428-3.148-6.698-8.491-10.745-6.958C230.57,260.754,236.884,267.369,239.49,269.302z"
						/>
					<path style="fill:#EBEBEB;" d="M251.448,277.325c-0.767,0.95-1.58,2.147-1.161,3.294c0.372,1.017,1.621,1.483,2.692,1.321
						c1.071-0.162,2.002-0.797,2.891-1.414c2.063-1.432,6.291-4.437,3.592-7.248C256.657,270.357,253.064,275.323,251.448,277.325z"
						/>
					<path style="fill:#E0E0E0;" d="M234.192,237.326c-0.883,0.097-1.777,0.688-1.927,1.563c-0.176,1.023,0.673,1.918,1.495,2.552
						c2.048,1.578,8.204,5.838,9.578,1.729C244.636,239.287,236.913,237.025,234.192,237.326z"/>
					<g>
						<path style="fill:#E6E6E6;" d="M245.539,223.807c-1.27,0.121-2.537-0.34-3.81-0.259c-1.273,0.081-2.686,1.105-2.403,2.349
							c0.261,1.15,1.691,1.535,2.867,1.609c2.008,0.126,4.032-0.014,6.003-0.415c0.458-0.093,0.956-0.229,1.218-0.615
							c0.515-0.758-0.304-1.774-1.18-2.043c-0.876-0.269-1.865-0.179-2.66-0.634L245.539,223.807z"/>
					</g>
					<g>
						<path style="fill:#F0F0F0;" d="M257.951,232.547c1.275,0.037,2.509-0.507,3.785-0.51c1.276-0.004,2.753,0.925,2.553,2.185
							c-0.185,1.164-1.586,1.643-2.755,1.794c-1.995,0.258-4.024,0.253-6.018-0.018c-0.463-0.063-0.969-0.165-1.256-0.533
							c-0.563-0.723,0.187-1.79,1.043-2.116c0.856-0.326,1.849-0.302,2.613-0.808L257.951,232.547z"/>
					</g>
					<g>
						<path style="fill:#F0F0F0;" d="M256.695,326.508c0.315-0.266,0.672-0.539,1.084-0.536c0.547,0.004,0.982,0.52,1.083,1.057
							c0.102,0.537-0.049,1.087-0.205,1.61c-0.863,2.892-10.569,23.838-12.802,20.077c-1.32-2.224,1.924-9.589,2.881-11.673
							C250.586,333.013,253.303,329.373,256.695,326.508z"/>
					</g>
				</g>
			</g>
			<g>
				<path style="fill:#E6E6E6;" d="M250.89,224.604c0.77-1.729,1.604-3.538,3.134-4.651c1.531-1.113,3.983-1.197,5.098,0.333
					c1.246,1.71,0,4.309-1.91,5.221c-1.91,0.912-4.147,0.637-6.243,0.343c-0.017-0.311-0.034-0.622-0.051-0.934L250.89,224.604z"/>
			</g>
		</g>
		<g>
			<path style="fill:#F0F0F0;" d="M257.672,382.555L257.672,382.555c-10.323,1.76-21.079,1.76-31.401,0l0,0l-12.215-36.042h55.83
				L257.672,382.555z"/>
		</g>
	</g>
	<g>
		<g>
			<circle style="fill:#E0E0E0;" cx="250.586" cy="92.249" r="20.734"/>
			
				<ellipse transform="matrix(0.1602 -0.9871 0.9871 0.1602 119.0752 322.7193)" style="fill:#EBEBEB;" cx="249.193" cy="91.382" rx="20.734" ry="20.734"/>
			<path style="opacity:0.8;fill:#FFFFFF;" d="M265.833,91.52c0,9.19-7.45,16.639-16.64,16.639c-9.19,0-16.639-7.45-16.639-16.639
				c0-9.19,7.45-16.64,16.639-16.64C258.383,74.881,265.833,82.33,265.833,91.52z"/>
		</g>
		<g>
			<g>
				<path style="fill:#E0E0E0;" d="M248.294,93.09c-0.659-0.659-0.659-1.727,0-2.386c0.659-0.659,1.727-0.659,2.386,0
					c0.659,0.659,0.659,1.727,0,2.386C250.021,93.749,248.953,93.749,248.294,93.09z"/>
			</g>
			<g>
				<polygon style="fill:#E0E0E0;" points="249.185,91.321 259.012,91.023 259.043,92.037 250.14,92.307 249.182,107.791 
					248.17,107.728 				"/>
			</g>
		</g>
	</g>
</g>
<g id="Background_Simple" style="display:none;">
	<g style="display:inline;">
		<path style="fill:#407BFF;" d="M138.096,117.913c-21.876,21.066-36.405,48.832-45.707,77.742
			c-6.319,19.639-10.368,40.93-4.848,60.809s22.892,37.633,43.522,37.839c15.765,0.157,30.23-9.716,39.84-22.214
			c9.61-12.498,15.269-27.495,21.297-42.062c6.028-14.568,12.793-29.289,24.005-40.373c11.364-11.233,26.566-17.914,42.102-21.652
			c10.908-2.624,23.573-3.53,32.223,3.614c10.662,8.805,9.889,26.098,2.746,37.938c-10.725,17.777-31.287,26.529-47.942,38.924
			c-30.431,22.647-48.948,60.473-48.168,98.399c0.245,11.917,3.106,25.152,12.982,31.826c10.31,6.968,24.742,3.989,34.975-3.092
			c10.233-7.081,17.551-17.51,25.887-26.749c23.049-25.544,54.088-42.148,81.872-62.442c27.784-20.294,54.001-47.108,59.483-81.074
			c4.611-28.568-6.833-58.38-26.662-79.456c-19.829-21.075-47.231-33.983-75.521-40.07
			C254.756,73.894,181.056,76.544,138.096,117.913z"/>
		<path style="opacity:0.9;fill:#FFFFFF;" d="M138.096,117.913c-21.876,21.066-36.405,48.832-45.707,77.742
			c-6.319,19.639-10.368,40.93-4.848,60.809s22.892,37.633,43.522,37.839c15.765,0.157,30.23-9.716,39.84-22.214
			c9.61-12.498,15.269-27.495,21.297-42.062c6.028-14.568,12.793-29.289,24.005-40.373c11.364-11.233,26.566-17.914,42.102-21.652
			c10.908-2.624,23.573-3.53,32.223,3.614c10.662,8.805,9.889,26.098,2.746,37.938c-10.725,17.777-31.287,26.529-47.942,38.924
			c-30.431,22.647-48.948,60.473-48.168,98.399c0.245,11.917,3.106,25.152,12.982,31.826c10.31,6.968,24.742,3.989,34.975-3.092
			c10.233-7.081,17.551-17.51,25.887-26.749c23.049-25.544,54.088-42.148,81.872-62.442c27.784-20.294,54.001-47.108,59.483-81.074
			c4.611-28.568-6.833-58.38-26.662-79.456c-19.829-21.075-47.231-33.983-75.521-40.07
			C254.756,73.894,181.056,76.544,138.096,117.913z"/>
	</g>
</g>
<g id="Shadow">
	<ellipse id="_x3C_Path_x3E__359_" style="fill:#F5F5F5;" cx="250" cy="415.693" rx="193.889" ry="11.323"/>
</g>
<g id="Character_2">
	<g>
		<g>
			<g>
				<path style="fill:#407BFF;" d="M430.351,362.905l5.078-80.857c1.886-30.033-21.963-55.427-52.055-55.427h0
					c-27.665,0-50.517,21.6-52.075,49.221l-5.325,94.439h96.522C426.651,370.282,430.091,367.052,430.351,362.905z"/>
				<path style="opacity:0.1;" d="M430.535,359.977l4.894-77.928c1.886-30.033-21.963-55.427-52.055-55.427h0
					c-27.665,0-50.517,21.6-52.075,49.221l-5.325,94.439h93.588C425.366,370.282,430.171,365.77,430.535,359.977z"/>
			</g>
			<path style="fill:#407BFF;" d="M414.685,370.282l5.541-88.234c1.886-30.033-21.963-55.427-52.055-55.427h0
				c-27.665,0-50.517,21.6-52.075,49.221l-5.325,94.439H414.685z"/>
		</g>
		<g>
			<path style="fill:#407BFF;" d="M416.347,385.472l1.333,0c0.679,0,1.312-0.575,1.423-1.355l1.967-13.831h-8.113l1.967,13.831
				C415.035,384.898,415.667,385.472,416.347,385.472z"/>
			<path style="opacity:0.7;fill:#FFFFFF;" d="M416.347,385.472l1.333,0c0.679,0,1.312-0.575,1.423-1.355l1.967-13.831h-8.113
				l1.967,13.831C415.035,384.898,415.667,385.472,416.347,385.472z"/>
		</g>
		<g>
			<path style="fill:#407BFF;" d="M285.696,385.472l1.209,0c0.616,0,1.189-0.575,1.29-1.355l1.783-13.831h-7.355l1.783,13.831
				C284.507,384.898,285.08,385.472,285.696,385.472z"/>
			<path style="opacity:0.5;fill:#FFFFFF;" d="M285.696,385.472l1.209,0c0.616,0,1.189-0.575,1.29-1.355l1.783-13.831h-7.355
				l1.783,13.831C284.507,384.898,285.08,385.472,285.696,385.472z"/>
		</g>
		<g>
			<path style="fill:#407BFF;" d="M323.312,385.472l1.209,0c0.616,0,1.189-0.575,1.29-1.355l1.783-13.831h-7.355l1.783,13.831
				C322.123,384.898,322.696,385.472,323.312,385.472z"/>
			<path style="opacity:0.7;fill:#FFFFFF;" d="M323.312,385.472l1.209,0c0.616,0,1.189-0.575,1.29-1.355l1.783-13.831h-7.355
				l1.783,13.831C322.123,384.898,322.696,385.472,323.312,385.472z"/>
		</g>
		<g>
			<path style="fill:#407BFF;" d="M375.849,385.472l1.334,0c0.679,0,1.312-0.575,1.423-1.355l1.967-13.831h-8.113l1.967,13.831
				C374.537,384.898,375.169,385.472,375.849,385.472z"/>
			<path style="opacity:0.5;fill:#FFFFFF;" d="M375.849,385.472l1.334,0c0.679,0,1.312-0.575,1.423-1.355l1.967-13.831h-8.113
				l1.967,13.831C374.537,384.898,375.169,385.472,375.849,385.472z"/>
		</g>
		<g>
			<g>
				<path style="fill:#407BFF;" d="M331.819,336.96h-35.558l-2.356-34.283l-0.502-7.359v-0.011l-0.232-3.387
					c-0.068-0.905-0.184-1.789-0.348-2.652c-0.039-0.192-0.087-0.394-0.125-0.586c-0.019-0.149-0.058-0.288-0.106-0.426
					c-1.014-3.6-2.906-6.773-5.416-9.202c-3.002-2.908-6.855-4.75-11.103-5.006h33.444c0.367-0.021,0.734-0.032,1.101-0.032
					c4.644,0,8.882,1.906,12.116,5.038c2.51,2.428,4.403,5.602,5.416,9.202c0.048,0.138,0.087,0.277,0.106,0.426
					c0.232,1.044,0.396,2.119,0.473,3.238l0.232,3.387v0.011L331.819,336.96z"/>
				<path style="opacity:0.1;" d="M331.819,336.96h-35.558l-2.356-34.283l-0.502-7.359v-0.011l-0.232-3.387
					c-0.068-0.905-0.184-1.789-0.348-2.652c-0.039-0.192-0.087-0.394-0.125-0.586c-0.019-0.149-0.058-0.288-0.106-0.426
					c-1.014-3.6-2.906-6.773-5.416-9.202c-3.002-2.908-6.855-4.75-11.103-5.006h33.444c0.367-0.021,0.734-0.032,1.101-0.032
					c4.644,0,8.882,1.906,12.116,5.038c2.51,2.428,4.403,5.602,5.416,9.202c0.048,0.138,0.087,0.277,0.106,0.426
					c0.232,1.044,0.396,2.119,0.473,3.238l0.232,3.387v0.011L331.819,336.96z"/>
			</g>
		</g>
		<g style="opacity:0.1;">
			<path d="M360,318.698h14.285c3.472,0,6.287,2.198,6.287,4.909v8.448c0,2.711-2.815,4.909-6.287,4.909H360V318.698z"/>
		</g>
		<g>
			<path style="fill:#407BFF;" d="M301.689,336.964h62.889c2.996,0,5.425-2.429,5.425-5.425v-7.416c0-2.996-2.429-5.425-5.425-5.425
				h-62.889c-2.996,0-5.425,2.429-5.425,5.425v7.416C296.264,334.535,298.693,336.964,301.689,336.964z"/>
		</g>
		<path style="fill:#407BFF;" d="M450.028,294.274c0,10.011-7.264,18.34-16.806,19.969l-3.685,48.725
			c-0.319,4.143-3.323,7.317-6.922,7.317h-39.225c3.6,0,6.603-3.174,6.923-7.317l1.97-26.008l1.715-22.717
			c6.348-1.086,11.684-5.123,14.538-10.661c0.192-0.351,0.362-0.724,0.522-1.097c1.129-2.513,1.747-5.283,1.747-8.211
			c0-1.417-0.149-2.801-0.426-4.132c-0.107-0.543-0.245-1.086-0.394-1.608c-0.724-2.418-1.875-4.643-3.366-6.592l-0.011-0.011
			c-1.864-2.428-4.26-4.399-7.008-5.772c-2.727-1.374-5.805-2.141-9.053-2.141h39.225c2.077,0,4.09,0.32,5.985,0.905
			c1.065,0.33,2.088,0.745,3.067,1.235c2.748,1.374,5.144,3.344,7.008,5.772l0.011,0.011
			C448.462,285.36,450.028,289.63,450.028,294.274z"/>
		<path style="opacity:0.1;" d="M450.028,294.274c0,10.011-7.264,18.34-16.806,19.969l-3.685,48.725
			c-0.319,4.143-3.323,7.317-6.922,7.317h-39.225c3.6,0,6.603-3.174,6.923-7.317l1.97-26.008l1.715-22.717
			c6.348-1.086,11.684-5.123,14.538-10.661c0.192-0.351,0.362-0.724,0.522-1.097c1.129-2.513,1.747-5.283,1.747-8.211
			c0-1.417-0.149-2.801-0.426-4.132c-0.107-0.543-0.245-1.086-0.394-1.608c-0.724-2.418-1.875-4.643-3.366-6.592l-0.011-0.011
			c-1.864-2.428-4.26-4.399-7.008-5.772c-2.727-1.374-5.805-2.141-9.053-2.141h39.225c2.077,0,4.09,0.32,5.985,0.905
			c1.065,0.33,2.088,0.745,3.067,1.235c2.748,1.374,5.144,3.344,7.008,5.772l0.011,0.011
			C448.462,285.36,450.028,289.63,450.028,294.274z"/>
		<path style="fill:#407BFF;" d="M410.806,294.276c0,10.007-6.585,18.339-15.238,19.965l-3.34,48.724
			c-0.288,4.147-3.009,7.322-6.28,7.322H281.212c-3.262,0-5.983-3.175-6.28-7.322l-3.349-48.801
			c-8.478-1.78-14.889-10.007-14.889-19.888c0-4.368,1.256-8.409,3.384-11.71c1.736-2.704,4.073-4.917,6.777-6.408
			c2.468-1.376,5.259-2.146,8.208-2.146c4.64,0,8.879,1.915,12.115,5.042c2.512,2.425,4.405,5.6,5.416,9.198
			c0.044,0.144,0.087,0.279,0.105,0.433c0.236,1.039,0.392,2.117,0.471,3.233l0.236,3.387v0.01l2.852,41.643h74.645l3.087-45.039
			c0.445-6.36,3.541-11.661,7.841-14.173c2.713-2.136,5.984-3.464,9.507-3.685c0.366-0.038,0.733-0.048,1.099-0.048
			c2.861,0,5.573,0.722,7.981,2.03c0.079,0.029,0.148,0.077,0.227,0.116c2.495,1.376,4.667,3.348,6.359,5.773l0.009,0.01
			C409.385,285.357,410.806,289.629,410.806,294.276z"/>
		<g>
			<path style="opacity:0.1;fill:#FFFFFF;" d="M369.175,370.287h-87.963c-3.262,0-5.983-3.175-6.28-7.322l-3.349-48.801
				c-8.478-1.78-14.889-10.007-14.889-19.888c0-4.368,1.256-8.409,3.384-11.71c1.736-2.704,4.073-4.917,6.777-6.408
				c2.468-1.376,5.259-2.146,8.208-2.146c4.64,0,8.879,1.915,12.115,5.042c2.512,2.425,4.405,5.6,5.416,9.198
				c0.044,0.144,0.087,0.279,0.105,0.433c0.236,1.039,0.392,2.117,0.471,3.233l0.236,3.387v0.01l2.852,41.643h74.645
				L369.175,370.287z"/>
		</g>
		<g>
			<g>
				<g>
					<path style="fill:#263238;" d="M357.761,231.722c-1.738,0.963-3.333,1.83-4.974,2.673c-1.642,0.844-3.309,1.636-4.974,2.41
						c-3.36,1.535-6.762,2.989-10.268,4.27c-3.526,1.318-7.118,2.454-10.76,3.405c-3.786,1.02-7.653,1.712-11.558,2.069
						l-0.824,0.076l-0.398-0.029c-3.528-0.407-6.658-1.048-9.797-1.7c-3.139-0.651-6.253-1.389-9.333-2.172
						c-3.081-0.784-6.139-1.605-9.193-2.484c-3.054-0.879-6.096-1.786-9.12-2.819l1.391-6.944
						c6.286,0.406,12.566,1.037,18.788,1.653l9.289,0.931c3.058,0.294,6.188,0.555,8.928,0.661l-1.211,0.027
						c3.138-0.557,6.231-1.338,9.258-2.337c3.137-1.025,6.27-2.139,9.391-3.487c3.122-1.348,6.235-2.716,9.316-4.184
						c1.574-0.722,3.112-1.485,4.61-2.232c1.498-0.747,3.097-1.545,4.466-2.262L357.761,231.722z"/>
					<path style="opacity:0.1;" d="M357.761,231.722c-1.738,0.963-3.333,1.83-4.974,2.673c-1.642,0.844-3.309,1.636-4.974,2.41
						c-3.36,1.535-6.762,2.989-10.268,4.27c-3.526,1.318-7.118,2.454-10.76,3.405c-3.786,1.02-7.653,1.712-11.558,2.069
						l-0.824,0.076l-0.398-0.029c-3.528-0.407-6.658-1.048-9.797-1.7c-3.139-0.651-6.253-1.389-9.333-2.172
						c-3.081-0.784-6.139-1.605-9.193-2.484c-3.054-0.879-6.096-1.786-9.12-2.819l1.391-6.944
						c6.286,0.406,12.566,1.037,18.788,1.653l9.289,0.931c3.058,0.294,6.188,0.555,8.928,0.661l-1.211,0.027
						c3.138-0.557,6.231-1.338,9.258-2.337c3.137-1.025,6.27-2.139,9.391-3.487c3.122-1.348,6.235-2.716,9.316-4.184
						c1.574-0.722,3.112-1.485,4.61-2.232c1.498-0.747,3.097-1.545,4.466-2.262L357.761,231.722z"/>
				</g>
				<path style="fill:#FFC3BD;" d="M276.626,226.705c-2.343-1.682-4.837-2.365-4.837-2.365l-2.587,10.109l7.755,3.262l0.88-1.078
					C280.328,233.581,279.827,229.002,276.626,226.705z"/>
				<polygon style="fill:#FFC3BD;" points="269.202,234.448 271.79,224.34 264.549,220.393 262.365,227.511 				"/>
				<path style="opacity:0.2;enable-background:new    ;" d="M333.409,241.95l0.28-0.013l0.124,0.025
					c3.821-0.415,15.044-2.302,23.171-10.311c-1.218-2.336-2.876-4.155-4.906-4.561C346.483,226.068,339.622,230.078,333.409,241.95
					z"/>
				<path style="fill:#407BFF;" d="M339.98,294.266c9.579-25.867,3.277-49.656,4.482-62.823c0.617-6.663,5.563-12.117,12.135-13.381
					c6.547-1.266,14.629-2.683,22.347-3.724c0.739-0.1,1.485-0.145,2.231-0.135c8.348,0.113,15.023,6.971,14.91,15.319
					c-0.675,39.025-13.177,64.744-13.177,64.744l-20.194-0.087L339.98,294.266z"/>
				<path style="opacity:0.8;fill:#FFFFFF;" d="M339.98,294.266c9.579-25.867,3.277-49.656,4.482-62.823
					c0.617-6.663,5.563-12.117,12.135-13.381c6.547-1.266,14.629-2.683,22.347-3.724c0.739-0.1,1.485-0.145,2.231-0.135
					c8.348,0.113,15.023,6.971,14.91,15.319c-0.675,39.025-13.177,64.744-13.177,64.744l-20.194-0.087L339.98,294.266z"/>
				<g id="character-2--inject-102">
					<polygon style="fill:#FFC3BD;" points="263.36,382.54 260.796,399.373 268.934,399.373 274.275,382.54 					"/>
					<path style="fill:#263238;" d="M259.76,395.618l10.872-0.255c0.38-0.02,0.683,0.245,0.682,0.596l0.024,7.981
						c-0.05,0.872-0.85,1.6-1.79,1.63c-3.781,0.028-5.579-0.14-10.363-0.027c-5.117-0.02-10.2-0.355-15.214-1.002
						c-3.872-0.662-2.826-4.297-1.074-4.356c7.907-0.289,12.323-1.936,15.159-3.976C258.55,395.842,259.152,395.633,259.76,395.618z
						"/>
					<polygon style="opacity:0.2;" points="262.332,389.291 263.36,382.54 274.275,382.54 271.647,390.957 					"/>
					<g>
						<path style="fill:#407BFF;" d="M334.966,288.21c0,0-66.145,0.658-67.175,21.609c-1.464,30.121-6.553,76.044-6.553,76.044
							l12.475,3.429c0,0,17.793-45.534,18.487-69.057c18.604-3.708,66.443,0,72.062-12.22c2.754-6.356,3.483-13.164,2.121-19.805
							H334.966z"/>
						<path style="opacity:0.6;" d="M334.966,288.21c0,0-66.145,0.658-67.175,21.609c-1.464,30.121-6.553,76.044-6.553,76.044
							l12.475,3.429c0,0,17.793-45.534,18.487-69.057c18.604-3.708,66.443,0,72.062-12.22c2.754-6.356,3.483-13.164,2.121-19.805
							H334.966z"/>
					</g>
					<polygon style="fill:#FFC3BD;" points="321.558,389.047 325.974,400.469 334.89,400.469 331.819,388.456 					"/>
					<polygon style="opacity:0.2;" points="332.648,391.699 330.918,382.912 319.655,384.312 322.535,391.951 					"/>
					<path style="fill:#263238;" d="M323.555,396.685h11.381c0.395-0.018,0.732,0.271,0.751,0.646c0,0.004,0,0.008,0.001,0.012
						l0.558,8.531c0,0.935-0.789,1.697-1.775,1.715c-3.96-0.065-5.861-0.291-10.868-0.291c-3.073,0-9.287,0.302-13.543,0.302
						c-4.256,0-4.131-3.98-2.333-4.314c8.092-1.618,11.221-3.85,14.078-5.986C322.3,396.919,322.916,396.704,323.555,396.685z"/>
					<path style="fill:#407BFF;" d="M352.789,288.21c0,0-59.993,4.067-58.518,25.008c1.612,22.925,25.637,76.074,25.637,76.074
						h12.13c0,0-8.062-48.236-11.721-71.589c16.918,0,56.136,2.552,61.767-9.698c2.754-6.356,3.479-13.165,2.108-19.805
						L352.789,288.21z"/>
					<path style="opacity:0.5;" d="M352.789,288.21c0,0-59.993,4.067-58.518,25.008c1.612,22.925,25.637,76.074,25.637,76.074h12.13
						c0,0-8.062-48.236-11.721-71.589c16.918,0,56.136,2.552,61.767-9.698c2.754-6.356,3.479-13.165,2.108-19.805L352.789,288.21z"
						/>
				</g>
				<path style="fill:#FFC3BD;" d="M361.875,203.423c1.384,5.338,1.817,11.983-5.644,14.747c-2.068,3.299-3.084,6.775,4.893,5.536
					c6.344-0.819,12.118-4.086,16.088-9.102c-4.775-4.174-3.9-16.991-2.693-24.223L361.875,203.423z"/>
				<g>
					<path style="fill:#263238;" d="M361.027,213.137c-6.844,1.177-12.481,6.47-15.5,12.723c-3.019,6.253-3.746,13.371-3.689,20.315
						c0.057,6.944,0.849,13.876,0.666,20.817c-0.211,8.022-2.146,13.671-4.905,21.207c0,1.792,2.711,2.803,5.011,3.268
						c4.776-10.432,7.917-20.403,7.585-31.872c-0.241-8.32-0.359-17.795,0.997-26.008c1.336-8.09,11.17-18.912,10.7-20.387
						L361.027,213.137z"/>
				</g>
				<path style="opacity:0.3;enable-background:new    ;" d="M367.703,207.336c-1.617,1.063-3.538,1.632-5.058,1.226
					c0.013-1.298-0.081-2.595-0.282-3.878l8.277-6.801c0.184,0.883,0.301,1.778,0.35,2.677
					C371.136,203.235,369.941,205.865,367.703,207.336z"/>
				<g>
					<g>
						<path style="fill:#FFC3BD;" d="M355.325,171.844c-8.757,4.943-8.846,18.938-6.148,27.025c0.768,2.387,2.257,4.477,4.263,5.982
							c5.355,4.018,12.953,2.935,16.971-2.419c4.277-5.413,3.662-10.874,3.452-20.266
							C373.637,172.783,364.081,166.9,355.325,171.844z"/>
						<path style="opacity:0.2;enable-background:new    ;" d="M358.141,196.984c-2.821,1.207-5.914,2.779-8.762,2.439
							c0.811,2.154,2.213,4.04,4.06,5.426c5.355,4.018,12.953,2.935,16.972-2.419c3.499-4.428,4.605-7.43,3.575-15.511
							C368.525,193.338,364.174,194.403,358.141,196.984z"/>
						<path style="fill:#263238;" d="M366.604,174.957c-1.885,2.897-1.498,7.07,0.889,9.57c0.79,0.828,1.758,1.475,2.521,2.327
							c1.175,1.312,1.806,3.097,1.717,4.857c0.298-2.291,2.437-4.196,4.747-4.227c-1.187,3.667-2.375,7.335-3.562,11.002
							c4.708-2.128,8.135-6.86,8.687-11.997C382.362,179.425,373.601,164.205,366.604,174.957z"/>
						<path style="fill:#263238;" d="M346.184,175.492c-0.626,0.775-1.219,1.625-1.394,2.605c-0.176,0.98,0.175,2.117,1.053,2.587
							c0.713,0.381,1.579,0.253,2.375,0.115c2.661-0.463,5.323-0.926,7.984-1.388c4.579-0.796,9.162-1.593,13.682-2.675
							c2.028-0.486,4.309-1.25,5.107-3.176c2.592-6.249-8.476-7.062-12.167-6.884C356.486,166.979,350.12,170.619,346.184,175.492z"
							/>
						<path style="fill:#FFC3BD;" d="M375.283,185.922c-2.628,0.593-3.744,4.362-3.669,6.781c0.016,2.743,2.032,4.533,4.314,2.878
							c1.724-1.28,2.897-3.167,3.282-5.279C379.677,187.706,377.911,185.329,375.283,185.922z"/>
						<path style="fill:#ED847E;" d="M356.766,195.468c0,0-1.497,0.984-2.723,0.413c1.013-2.256,0.878-1.747,1.185-5.595
							L356.766,195.468z"/>
						<path style="fill:#263238;" d="M361.378,182.953c-0.753-0.839-2.797-1.162-3.913-0.999l0,0
							c-0.008,0.002-0.017,0.003-0.026,0.005c-0.233,0.036-0.452-0.125-0.487-0.358c-0.032-0.248,0.133-0.479,0.378-0.528
							c1.399-0.212,3.732,0.21,4.679,1.261c0.003,0.003,0.006,0.007,0.009,0.01c0.164,0.185,0.146,0.468-0.039,0.631
							c-0.057,0.053-0.124,0.096-0.197,0.125C361.631,183.124,361.478,183.069,361.378,182.953z"/>
						<path style="fill:#263238;" d="M348.436,184.872c-0.009-0.005-0.018-0.011-0.027-0.017c-0.197-0.131-0.25-0.397-0.118-0.593
							c0.715-1.277,1.984-2.148,3.433-2.355c0.01-0.001,0.021-0.001,0.032-0.001c0.231,0,0.418,0.187,0.418,0.418
							c0.009,0.25-0.182,0.463-0.431,0.481c-1.145,0.181-2.141,0.882-2.698,1.899c-0.077,0.129-0.211,0.214-0.361,0.229
							C348.596,184.941,348.509,184.919,348.436,184.872z"/>
					</g>
					<g>
						<path style="fill:#2E353A;" d="M355.983,199.535c1.094,1.284,2.647,3.847,2.647,3.847c0.21-0.083,0.421-0.167,0.625-0.263
							c2.815-1.219,3.617-2.916,3.651-4.428c0.016-0.828-0.207-1.607-0.455-2.213c-0.28-0.704-0.613-1.158-0.613-1.158
							c-1.008,1.731-3.524,3.113-4.903,3.782C356.36,199.389,355.983,199.535,355.983,199.535z"/>
						<path style="fill:#FFFFFF;" d="M356.934,199.101l0.401,0.557c0.234,0.325,0.671,0.444,1.034,0.273
							c2.081-0.98,3.46-2.023,3.961-3.131c0.096-0.213,0.068-0.464-0.032-0.675c-0.236-0.5-0.46-0.805-0.46-0.805
							C360.829,197.051,358.314,198.433,356.934,199.101z"/>
						<path style="fill:#DE5753;" d="M359.255,203.118c2.815-1.219,3.617-2.916,3.651-4.428c-0.939,0.46-2.01,1.143-2.79,2.107
							C359.516,201.531,359.302,202.356,359.255,203.118z"/>
					</g>
					<g>
						<path style="fill:#263238;" d="M351.653,188.044c-0.489,0.09-0.767,0.785-0.621,1.536c0.146,0.751,0.67,1.291,1.155,1.192
							c0.485-0.099,0.767-0.785,0.621-1.536C352.678,188.501,352.142,187.954,351.653,188.044z"/>
					</g>
					<g>
						<path style="fill:#263238;" d="M360.233,186.62c-0.489,0.09-0.767,0.785-0.621,1.536c0.146,0.751,0.67,1.291,1.155,1.192
							c0.485-0.099,0.767-0.785,0.621-1.536C361.259,187.077,360.722,186.53,360.233,186.62z"/>
					</g>
					<g>
						<polygon style="opacity:0.9;fill:#FFFFFF;" points="347.867,192.061 354.178,190.643 354.285,193.322 348.421,194.725 						
							"/>
						<g style="opacity:0.8;">
							<polygon style="opacity:0.9;fill:#FFFFFF;" points="356.1,190.222 356.854,192.684 364.947,190.942 364.467,188.096 							
								"/>
						</g>
						<g>
							<polygon style="fill:#263238;" points="354.217,191.629 354.178,190.643 356.1,190.222 356.385,191.154 							"/>
						</g>
					</g>
				</g>
				<path style="fill:#263238;" d="M351.92,293.116c0,0,11.389,4.411,13.989,5.278c3.066,1.022,6.176,2.053,9.375,2.15
					c3.199,0.097,6.553-0.848,8.868-3.314c2.722-2.899,3.565-7.305,4.275-11.428c2.088-12.129,4.177-24.257,6.265-36.386
					c1.03-5.981,3.628-14.967,3.407-18.391c-0.407-6.297-4.419-13.732-14.631-17.829c-3.966-1.591-7.884-0.98-11.228,3.02
					c-1.995,2.387-7.816,8.123-9.246,18.232c-1.146,8.102-2.92,18.594-2.812,26.823C360.324,272.068,356.024,285.712,351.92,293.116
					z"/>
				<g>
					<path style="fill:#263238;" d="M397.548,227.7c1.161,10.543-4.665,37.113-5.791,38.705
						c-4.776,15.416-17.905,7.108-19.808,6.397c-3.31-1.223-6.679-3.608-9.828-5.201c-6.113-3.035-11.897-5.477-17.581-9.255
						l3.202-6.319c6.224,2.127,23.858,6.679,26.763,7.389c1.263,0.33,6.171,2.907,6.12-0.491c0.697-1.129,1.658-23.135,3.767-30.915
						c0.237-0.876,0.661-1.684,1.227-2.393l0.192-0.24C389.219,221.11,396.022,222.456,397.548,227.7L397.548,227.7z"/>
					<path style="opacity:0.1;fill:#FFFFFF;" d="M397.548,227.7c1.161,10.543-4.665,37.113-5.791,38.705
						c-4.776,15.416-17.905,7.108-19.808,6.397c-3.31-1.223-6.679-3.608-9.828-5.201c-6.113-3.035-11.897-5.477-17.581-9.255
						l3.202-6.319c6.224,2.127,23.858,6.679,26.763,7.389c1.263,0.33,6.171,2.907,6.12-0.491c0.697-1.129,1.658-23.135,3.767-30.915
						c0.237-0.876,0.661-1.684,1.227-2.393l0.192-0.24C389.219,221.11,396.022,222.456,397.548,227.7L397.548,227.7z"/>
				</g>
				<g>
					<g>
						<g>
							<polygon style="fill:#263238;" points="345.235,267.503 315.637,267.503 312.258,228.881 341.856,228.881 							"/>
							<polygon style="opacity:0.5;fill:#FFFFFF;" points="345.235,267.503 315.637,267.503 312.258,228.881 341.856,228.881 
															"/>
						</g>
						<polygon style="fill:#407BFF;" points="344.19,267.308 314.592,267.308 311.213,228.686 340.811,228.686 						"/>
						<polygon style="opacity:0.8;fill:#FFFFFF;" points="344.19,267.308 314.592,267.308 311.213,228.686 340.811,228.686 						
							"/>
						<polygon style="fill:#407BFF;" points="332.447,231.099 319.999,231.099 319.576,226.273 332.025,226.273 						"/>
					</g>
					<g>
						<polygon style="fill:#407BFF;" points="319.576,226.273 320.804,225.849 333.693,225.849 333.867,227.904 332.909,229.015 
							332.845,230.694 332.447,231.099 332.025,226.273 						"/>
						<polygon style="opacity:0.5;" points="319.576,226.273 320.804,225.849 333.693,225.849 333.867,227.904 332.909,229.015 
							332.845,230.694 332.447,231.099 332.025,226.273 						"/>
					</g>
				</g>
				<path style="fill:#FFC3BD;" d="M350.096,254.123l0.676,3.609c-1.599,4.164-10.777,3.064-10.777,3.064l-0.016-10.667l8.092,1.88
					C349.104,252.254,349.897,253.081,350.096,254.123z"/>
				<polygon style="fill:#FFC3BD;" points="339.98,250.129 340.025,260.82 331.904,261.022 330.04,251.615 				"/>
			</g>
		</g>
		<g>
			<path style="fill:#407BFF;" d="M370.902,336.958l3.087-45.039c0.445-6.36,3.541-11.661,7.841-14.173
				c2.713-2.136,5.984-3.464,9.507-3.685c0.366-0.038,0.733-0.048,1.099-0.048c2.861,0,5.573,0.722,7.981,2.03
				c0.079,0.029,0.148,0.077,0.227,0.116c2.495,1.376,4.667,3.348,6.359,5.773l0.009,0.01c2.372,3.416,3.794,7.688,3.794,12.335
				c0,10.007-6.585,18.339-15.238,19.965l-3.34,48.724c-0.288,4.147-3.009,7.322-6.28,7.322h-16.773L370.902,336.958z"/>
			<path style="opacity:0.1;fill:#FFFFFF;" d="M370.902,336.958l3.087-45.039c0.445-6.36,3.541-11.661,7.841-14.173
				c2.713-2.136,5.984-3.464,9.507-3.685c0.366-0.038,0.733-0.048,1.099-0.048c2.861,0,5.573,0.722,7.981,2.03
				c0.079,0.029,0.148,0.077,0.227,0.116c2.495,1.376,4.667,3.348,6.359,5.773l0.009,0.01c2.372,3.416,3.794,7.688,3.794,12.335
				c0,10.007-6.585,18.339-15.238,19.965l-3.34,48.724c-0.288,4.147-3.009,7.322-6.28,7.322h-16.773L370.902,336.958z"/>
		</g>
	</g>
</g>
<g id="Text_Balloon">
	<g>
		<g>
			<path style="fill:none;stroke:#407BFF;stroke-miterlimit:10;" d="M218.3,127.6v41.81c0,2.18-1.77,3.95-3.95,3.95h-42.87
				l-15.3,11.83c-0.5,0.38-1.12,0.59-1.75,0.59c-1.62,0-2.93-1.31-2.93-2.93v-9.49h-2.39c-2.18,0-3.95-1.77-3.95-3.95v-41.82
				c0.01-2.17,1.78-3.93,3.95-3.92h65.26C216.54,123.67,218.3,125.43,218.3,127.6z"/>
		</g>
		<g>
			<rect x="170.034" y="117.785" style="fill:#407BFF;" width="8.17" height="1"/>
			<path style="fill:#407BFF;" d="M139.984,129.565h-1v-4.93c0.006-3.79,3.08-6.86,6.87-6.86h18.23v1h-18.23
				c-3.238,0-5.865,2.622-5.87,5.86V129.565z"/>
		</g>
		<g>
			<path style="fill:#407BFF;" d="M197.772,154.3c-1.836,0-3.32-1.555-3.164-3.384c0.001-0.014,0.002-0.029,0.004-0.043
				c1.067-12.193,10.727-13.309,11.941-27.177c0.349-3.985-1.112-5.499-3.902-5.499c-2.79,0-4.516,1.514-4.865,5.499l-0.2,2.288
				c-0.187,2.133-1.972,3.769-4.113,3.769l0,0c-2.422,0-4.324-2.075-4.113-4.488l0.088-1.011c0.781-8.926,5.61-14.026,14.139-14.026
				c8.527,0,12.464,5.101,11.683,14.026c-1.269,14.505-11.825,16.737-12.717,26.938c-0.004,0.05-0.008,0.1-0.012,0.149
				c-0.133,1.663-1.492,2.959-3.161,2.959H197.772z M202.098,162.78l-0.003,0.032c-0.19,2.173-2.01,3.841-4.192,3.841l0,0
				c-2.469,0-4.407-2.115-4.192-4.575l0.003-0.032c0.19-2.173,2.01-3.841,4.192-3.841h0
				C200.375,158.206,202.313,160.321,202.098,162.78z"/>
		</g>
		<g>
			<g>
				<path style="fill:#407BFF;" d="M186.502,144.514h-22.959c-1.104,0-2-0.896-2-2c0-1.105,0.896-2,2-2h22.959c1.104,0,2,0.895,2,2
					C188.502,143.618,187.606,144.514,186.502,144.514z"/>
			</g>
			<g>
				<path style="fill:#407BFF;" d="M183.32,152.427h-19.777c-1.104,0-2-0.896-2-2c0-1.105,0.896-2,2-2h19.777c1.105,0,2,0.895,2,2
					C185.32,151.531,184.424,152.427,183.32,152.427z"/>
			</g>
			<g>
				<path style="fill:#407BFF;" d="M180.138,160.339h-16.595c-1.104,0-2-0.896-2-2c0-1.105,0.896-2,2-2h16.595c1.105,0,2,0.895,2,2
					C182.138,159.444,181.243,160.339,180.138,160.339z"/>
			</g>
		</g>
	</g>
</g>
<g id="Character_1">
	<g>
		<path style="fill:#407BFF;" d="M133.081,323.515h-14.616c-3.553,0-6.433,2.249-6.433,5.023v8.644c0,2.774,2.88,5.023,6.433,5.023
			h14.616V323.515z"/>
	</g>
	<g>
		<g>
			<g>
				<path style="fill:#407BFF;" d="M65.177,364.199l-5.078-80.857c-1.886-30.033,21.963-55.427,52.055-55.427h0
					c27.665,0,50.517,21.6,52.075,49.221l5.325,94.439H73.032C68.877,371.576,65.437,368.346,65.177,364.199z"/>
				<path style="opacity:0.1;" d="M64.993,361.27l-4.894-77.928c-1.886-30.033,21.963-55.427,52.055-55.427h0
					c27.665,0,50.517,21.6,52.075,49.221l5.325,94.439H75.966C70.161,371.576,65.357,367.063,64.993,361.27z"/>
			</g>
			<path style="fill:#407BFF;" d="M80.842,371.576l-5.541-88.234c-1.886-30.033,21.963-55.427,52.055-55.427h0
				c27.665,0,50.517,21.6,52.075,49.221l5.325,94.439H80.842z"/>
		</g>
		<g>
			<path style="fill:#407BFF;" d="M79.181,386.766l-1.334,0c-0.679,0-1.312-0.575-1.423-1.355l-1.967-13.831h8.113l-1.967,13.831
				C80.493,386.191,79.86,386.766,79.181,386.766z"/>
			<path style="opacity:0.7;fill:#FFFFFF;" d="M79.181,386.766l-1.334,0c-0.679,0-1.312-0.575-1.423-1.355l-1.967-13.831h8.113
				l-1.967,13.831C80.493,386.191,79.86,386.766,79.181,386.766z"/>
		</g>
		<g>
			<path style="fill:#407BFF;" d="M209.831,386.766l-1.209,0c-0.616,0-1.189-0.575-1.29-1.355l-1.783-13.831h7.355l-1.783,13.831
				C211.021,386.191,210.447,386.766,209.831,386.766z"/>
			<path style="opacity:0.5;fill:#FFFFFF;" d="M209.831,386.766l-1.209,0c-0.616,0-1.189-0.575-1.29-1.355l-1.783-13.831h7.355
				l-1.783,13.831C211.021,386.191,210.447,386.766,209.831,386.766z"/>
		</g>
		<g>
			<path style="fill:#407BFF;" d="M172.215,386.766l-1.209,0c-0.616,0-1.189-0.575-1.29-1.355l-1.783-13.831h7.355l-1.783,13.831
				C173.405,386.191,172.831,386.766,172.215,386.766z"/>
			<path style="opacity:0.7;fill:#FFFFFF;" d="M172.215,386.766l-1.209,0c-0.616,0-1.189-0.575-1.29-1.355l-1.783-13.831h7.355
				l-1.783,13.831C173.405,386.191,172.831,386.766,172.215,386.766z"/>
		</g>
		<g>
			<path style="fill:#407BFF;" d="M119.679,386.766l-1.334,0c-0.679,0-1.312-0.575-1.423-1.355l-1.967-13.831h8.113l-1.967,13.831
				C120.991,386.191,120.358,386.766,119.679,386.766z"/>
			<path style="opacity:0.5;fill:#FFFFFF;" d="M119.679,386.766l-1.334,0c-0.679,0-1.312-0.575-1.423-1.355l-1.967-13.831h8.113
				l-1.967,13.831C120.991,386.191,120.358,386.766,119.679,386.766z"/>
		</g>
		<g>
			<g>
				<path style="fill:#407BFF;" d="M163.708,338.253h35.558l2.356-34.283l0.502-7.359V296.6l0.232-3.387
					c0.068-0.905,0.184-1.789,0.348-2.652c0.039-0.192,0.087-0.394,0.125-0.586c0.019-0.149,0.058-0.288,0.106-0.426
					c1.014-3.6,2.906-6.773,5.416-9.202c3.002-2.908,6.855-4.75,11.103-5.005h-33.444c-0.367-0.021-0.734-0.032-1.101-0.032
					c-4.644,0-8.882,1.906-12.116,5.038c-2.51,2.428-4.403,5.602-5.416,9.202c-0.048,0.138-0.087,0.277-0.106,0.426
					c-0.232,1.044-0.396,2.119-0.473,3.238l-0.232,3.387v0.011L163.708,338.253z"/>
				<path style="opacity:0.1;" d="M163.708,338.253h35.558l2.356-34.283l0.502-7.359V296.6l0.232-3.387
					c0.068-0.905,0.184-1.789,0.348-2.652c0.039-0.192,0.087-0.394,0.125-0.586c0.019-0.149,0.058-0.288,0.106-0.426
					c1.014-3.6,2.906-6.773,5.416-9.202c3.002-2.908,6.855-4.75,11.103-5.005h-33.444c-0.367-0.021-0.734-0.032-1.101-0.032
					c-4.644,0-8.882,1.906-12.116,5.038c-2.51,2.428-4.403,5.602-5.416,9.202c-0.048,0.138-0.087,0.277-0.106,0.426
					c-0.232,1.044-0.396,2.119-0.473,3.238l-0.232,3.387v0.011L163.708,338.253z"/>
			</g>
		</g>
		<g style="opacity:0.1;">
			<path d="M135.527,319.991h-14.285c-3.472,0-6.287,2.198-6.287,4.909v8.448c0,2.711,2.815,4.909,6.287,4.909h14.285V319.991z"/>
		</g>
		<g>
			<path style="fill:#407BFF;" d="M193.839,338.257h-62.889c-2.996,0-5.425-2.429-5.425-5.425v-7.416
				c0-2.996,2.429-5.425,5.425-5.425h62.889c2.996,0,5.425,2.429,5.425,5.425v7.416
				C199.264,335.828,196.835,338.257,193.839,338.257z"/>
		</g>
		<path style="fill:#407BFF;" d="M45.5,295.567c0,10.011,7.264,18.34,16.806,19.969l3.685,48.725
			c0.319,4.143,3.323,7.317,6.923,7.317h39.225c-3.6,0-6.603-3.174-6.923-7.317l-1.97-26.008l-1.715-22.717
			c-6.348-1.086-11.684-5.123-14.538-10.661c-0.192-0.352-0.362-0.724-0.522-1.097c-1.129-2.513-1.747-5.283-1.747-8.211
			c0-1.417,0.149-2.801,0.426-4.132c0.107-0.543,0.245-1.086,0.394-1.608c0.724-2.418,1.875-4.643,3.366-6.592l0.011-0.011
			c1.864-2.428,4.26-4.399,7.008-5.772c2.727-1.374,5.805-2.141,9.053-2.141H65.757c-2.077,0-4.09,0.32-5.985,0.905
			c-1.065,0.33-2.088,0.745-3.067,1.235c-2.748,1.374-5.144,3.344-7.008,5.772l-0.011,0.011
			C47.065,286.653,45.5,290.924,45.5,295.567z"/>
		<path style="opacity:0.1;" d="M45.5,295.567c0,10.011,7.264,18.34,16.806,19.969l3.685,48.725
			c0.319,4.143,3.323,7.317,6.923,7.317h39.225c-3.6,0-6.603-3.174-6.923-7.317l-1.97-26.008l-1.715-22.717
			c-6.348-1.086-11.684-5.123-14.538-10.661c-0.192-0.352-0.362-0.724-0.522-1.097c-1.129-2.513-1.747-5.283-1.747-8.211
			c0-1.417,0.149-2.801,0.426-4.132c0.107-0.543,0.245-1.086,0.394-1.608c0.724-2.418,1.875-4.643,3.366-6.592l0.011-0.011
			c1.864-2.428,4.26-4.399,7.008-5.772c2.727-1.374,5.805-2.141,9.053-2.141H65.757c-2.077,0-4.09,0.32-5.985,0.905
			c-1.065,0.33-2.088,0.745-3.067,1.235c-2.748,1.374-5.144,3.344-7.008,5.772l-0.011,0.011
			C47.065,286.653,45.5,290.924,45.5,295.567z"/>
		<path style="fill:#407BFF;" d="M84.721,295.569c0,10.007,6.585,18.339,15.238,19.965l3.34,48.724
			c0.288,4.147,3.009,7.322,6.28,7.322h104.736c3.262,0,5.983-3.175,6.28-7.322l3.349-48.801
			c8.478-1.78,14.889-10.007,14.889-19.888c0-4.368-1.256-8.409-3.384-11.71c-1.736-2.704-4.073-4.917-6.777-6.408
			c-2.468-1.376-5.259-2.146-8.208-2.146c-4.64,0-8.879,1.915-12.115,5.042c-2.512,2.425-4.405,5.6-5.416,9.198
			c-0.044,0.144-0.087,0.279-0.105,0.433c-0.235,1.039-0.392,2.117-0.471,3.233l-0.236,3.387v0.01l-2.852,41.643h-74.645
			l-3.087-45.039c-0.445-6.36-3.541-11.661-7.841-14.173c-2.713-2.136-5.984-3.464-9.507-3.685
			c-0.366-0.039-0.733-0.048-1.099-0.048c-2.861,0-5.573,0.722-7.981,2.03c-0.079,0.029-0.148,0.077-0.227,0.116
			c-2.495,1.376-4.666,3.348-6.359,5.773l-0.009,0.01C86.143,286.65,84.721,290.922,84.721,295.569z"/>
		<g>
			<path style="opacity:0.1;fill:#FFFFFF;" d="M126.353,371.581h87.963c3.262,0,5.983-3.175,6.28-7.322l3.349-48.801
				c8.478-1.78,14.889-10.007,14.889-19.888c0-4.368-1.256-8.409-3.384-11.71c-1.736-2.704-4.073-4.917-6.777-6.408
				c-2.468-1.376-5.259-2.146-8.208-2.146c-4.64,0-8.879,1.915-12.115,5.042c-2.512,2.425-4.405,5.6-5.416,9.198
				c-0.044,0.144-0.087,0.279-0.105,0.433c-0.235,1.039-0.392,2.117-0.471,3.233l-0.236,3.387v0.01l-2.852,41.643h-74.645
				L126.353,371.581z"/>
		</g>
		<g>
			<g>
				<g>
					<g>
						<g>
							<polygon style="fill:#FFC3BD;" points="153.13,388.789 161.663,391.152 169.316,371.099 160.791,368.735 							"/>
							<path style="fill:#263238;" d="M165.483,388.49c-0.662-0.88-1.654-1.451-2.734-1.661l-8.789-1.708
								c-0.408-0.096-0.82,0.139-0.945,0.538l-2.718,8.013c-0.322,0.915,0.159,1.917,1.073,2.238
								c0.019,0.007,0.038,0.013,0.058,0.019c3.238,1.276,5.429,0.836,10.497,1.816c3.121,0.608,9.677,2.685,14.058,2.505
								c4.38-0.179,4.368-4.514,2.526-4.833C171.971,394.393,166.969,390.466,165.483,388.49z"/>
							<g style="opacity:0.2;">
								<polygon points="169.317,371.107 165.37,381.446 156.836,379.074 160.783,368.736 								"/>
							</g>
							<g>
								<path style="fill:#407BFF;" d="M140.854,295.041c0,0,51.357-0.281,49.755,16.922c-1.082,11.612-6.66,23.831-11.011,35.621
									c-6.306,17.087-11.774,31.975-11.774,31.975l-11.704-4.048c0,0,10.51-49.423,17.594-54.479h-43.425
									c-14.37,0-20.583-15.783-6.593-34.178C132.249,286.861,140.854,295.041,140.854,295.041z"/>
								<path style="opacity:0.6;" d="M140.854,295.041c0,0,51.357-0.281,49.755,16.922c0.796,10.685-22.785,67.596-22.785,67.596
									l-11.704-4.048c0,0,10.51-49.423,17.594-54.479h-43.425c-14.37,0-20.583-15.783-6.593-34.178
									C132.249,286.861,140.854,295.041,140.854,295.041z"/>
							</g>
						</g>
						<g>
							<g>
								<path style="fill:#263238;" d="M177.071,263.77c-6.317,5.775-18.732-7.885-20.727-9.512
									c-4.283-3.493-16.866-15.242-16.2-19.32c1.961-12.007,21.676,5.003,27.362,16.72L177.071,263.77z"/>
							</g>
							<path style="fill:#407BFF;" d="M121.76,227.661c-3.167,0.674-6.597-0.472-8.825,1.877c-2.228,2.35-3.161,5.654-3.485,8.876
								c-0.451,4.48,0.125,8.993,0.7,13.458c0.697,5.415,1.395,10.829,2.092,16.244c0.477,3.702,0.247,9.72-0.509,13.375
								l-0.006,0.028c-0.186,0.93,0.354,1.954,1.226,2.328c0,0,24.59,0.848,31.739,0.576c3.802-0.144,1.194-10.139,2.358-15.967
								c0.258-1.293,2.805-6.637,3.179-8.006c1.766-6.454,0.596-10.887-1.042-17.374c-1.188-4.707-1.677-11.5-4.078-12.021
								C140.833,230.127,130.585,225.783,121.76,227.661z"/>
							<path style="opacity:0.8;fill:#FFFFFF;" d="M121.76,227.661c-3.167,0.674-6.597-0.472-8.825,1.877
								c-2.228,2.35-3.161,5.654-3.485,8.876c-0.451,4.48,0.125,8.993,0.7,13.458c0.697,5.415,1.395,10.829,2.092,16.244
								c0.477,3.702,0.247,9.72-0.509,13.375l-0.006,0.028c-0.186,0.93,0.354,1.954,1.226,2.328c0,0,24.59,0.848,31.739,0.576
								c3.802-0.144,1.194-10.139,2.358-15.967c0.258-1.293,2.805-6.637,3.179-8.006c1.766-6.454,0.596-10.887-1.042-17.374
								c-1.188-4.707-1.677-11.5-4.078-12.021C140.833,230.127,130.585,225.783,121.76,227.661z"/>
							<path style="fill:#263238;" d="M118.246,232.275c-0.326-0.498-8.973-7.78-10.547,0.633
								c-2.192,11.709,2.341,23.232,2.341,23.232s1.041,12.673,4.718,13.937c3.676,1.263,7.185,1.579,8.424-0.587
								c1.239-2.166,1.239-5.414,1.239-5.414S123.978,241.024,118.246,232.275z"/>
							<path style="fill:#E8BFBF;" d="M124.236,211.589c0.896,5.393,1.648,15.243-2.21,18.714c0,0,9.418,4.929,15.593,13.527
								c3.567-2.824,3.591-6.403,2.86-9.096c-0.567-2.087-2.072-3.745-3.966-4.788c-3.656-2.012-3.306-5.777-2.304-9.319
								L124.236,211.589z"/>
							<path style="opacity:0.2;enable-background:new    ;" d="M125.466,220.742l3.511,1.347c1.504,0.577,3.11,0.837,4.719,0.765
								l0,0c-0.093,0.776-0.401,2.413,0,3.334c-2.175,0.79-5.612-0.254-6.976-2.238C126.15,223.171,125.726,221.671,125.466,220.742
								z"/>
							<polygon style="fill:#FFC3BD;" points="212.604,371.546 222.157,371.546 212.148,347.576 205.67,358.581 							"/>
							<path style="fill:#263238;" d="M221.374,369.282l-11.214-2.547c-0.396-0.105-0.807,0.113-0.941,0.501l-3.127,8.624
								c-0.265,0.913,0.26,1.868,1.173,2.133c0.018,0.005,0.035,0.01,0.053,0.015c3.931,0.821,5.864,1.019,10.794,2.138
								c3.036,0.689,10.717,2.705,14.903,3.656c4.186,0.95,5.29-3.153,3.622-3.931c-7.477-3.462-11.531-6.771-13.703-9.591
								C222.548,369.773,221.996,369.42,221.374,369.282z"/>
							<g style="opacity:0.2;">
								<polygon points="212.148,347.583 216.409,357.791 207.814,362.592 205.67,358.589 								"/>
							</g>
							<path style="fill:#263238;" d="M111.537,283.93l-1.033,3.258c-0.137,0.251,0.152,0.517,0.577,0.532l37.041,1.124
								c0.334,0,0.608-0.144,0.638-0.357l0.425-3.273c0-0.228-0.251-0.425-0.607-0.44l-36.395-1.101
								C111.937,283.634,111.689,283.733,111.537,283.93z"/>
							<g>
								<g>
									<path style="fill:#407BFF;" d="M157.823,310.682c-12.171,5.186-25.377,10.372-32.554,10.372
										c-14.377,0-27.148-10.381-13.534-33.988c8.552-0.03,23.423,0.243,23.423,0.243s28.043-7.956,48.381-5.637
										c9.921,1.131,17.941,8.577,19.888,18.371c5.163,25.978,13.112,54.117,13.112,54.117l-10.23,6.965
										c0,0-15.95-33.54-25.132-60.152C176.322,302.527,167.393,306.604,157.823,310.682z"/>
								</g>
								<path style="opacity:0.5;" d="M203.426,300.044c-1.947-9.794-9.967-17.24-19.888-18.371
									c-20.339-2.319-48.381,5.637-48.381,5.637s-14.871-0.273-23.423-0.243c-13.836,23.525-0.843,33.988,13.534,33.988
									c7.177,0,20.384-5.187,32.554-10.372c9.57-4.077,18.498-8.154,23.352-9.709c9.182,26.613,25.132,60.152,25.132,60.152
									l10.23-6.965C216.538,354.161,208.589,326.022,203.426,300.044z"/>
							</g>
							<g>
								<path style="fill:#407BFF;" d="M190.612,311.966c-0.296,3.205-0.82,6.539-1.504,9.949c-0.046-0.106-0.091-0.205-0.129-0.311
									c-0.015-0.03-0.023-0.053-0.038-0.084c-0.046-0.106-0.076-0.22-0.129-0.319c-2.727-6.76-5.385-13.694-7.633-20.218
									c0.015,0,0.038,0.015,0.068,0.023v-0.008C187.111,303.482,191.075,306.991,190.612,311.966z"/>
								<path style="opacity:0.6;" d="M190.612,311.966c-0.296,3.205-0.82,6.539-1.504,9.949c-0.046-0.106-0.091-0.205-0.129-0.311
									c-0.015-0.03-0.023-0.053-0.038-0.084c-0.046-0.106-0.076-0.22-0.129-0.319c-2.727-6.76-5.385-13.694-7.633-20.218
									c0.015,0,0.038,0.015,0.068,0.023v-0.008C187.111,303.482,191.075,306.991,190.612,311.966z"/>
							</g>
							<g>
								<g>
									<path style="fill:#E8BFBF;" d="M117.683,206.41c3.002,8.454,4.092,12.093,9.715,15.259
										c8.47,4.782,18.171-0.777,17.752-9.957c-0.377-8.256-5.226-20.696-14.629-21.695c-6.716-0.75-12.768,4.087-13.518,10.802
										C116.792,202.71,117.025,204.624,117.683,206.41z"/>
									<path style="fill:#263238;" d="M132.87,205.309c0.212,0.735,0.735,1.166,1.198,1.029s0.64-0.796,0.464-1.506
										c-0.177-0.71-0.734-1.158-1.198-1.029C132.87,203.932,132.672,204.61,132.87,205.309z"/>
									<path style="fill:#263238;" d="M140.725,202.835c0.204,0.736,0.735,1.166,1.19,1.03c0.455-0.135,0.64-0.796,0.464-1.506
										c-0.177-0.71-0.734-1.158-1.191-1.03C140.732,201.456,140.519,202.137,140.725,202.835z"/>
									<path style="fill:#263238;" d="M140.982,201.431l1.543-0.973C142.525,200.458,142.054,202.019,140.982,201.431z"/>
									<path style="fill:#ED847E;" d="M137.906,204.431c1.083,1.418,2.355,2.682,3.779,3.757
										c-0.672,1.125-2.367,1.154-2.367,1.154L137.906,204.431z"/>
									<path style="fill:#263238;" d="M112.156,212.038c0.469,1.573,1.243,3.075,1.39,4.71c0.289,3.224-2.326,6.433-5.542,6.8
										c2.761,0.819,6.014-0.651,7.223-3.265c-0.764,2.01-2.331,3.702-4.276,4.618c2.781,0.052,5.555-1.283,7.25-3.488
										c-0.475,1.216-0.949,2.432-1.424,3.647c2.365-1.423,4.338-3.49,5.649-5.918c0.537-0.994,0.937-2.299,0.236-3.184
										c-0.634-0.8-1.815-0.816-2.836-0.837c-1.021-0.021-2.242-0.257-2.617-1.207c-0.361-0.914,0.311-1.905,1.048-2.555
										c0.737-0.65,1.629-1.249,1.899-2.194c0.192-0.67,0.026-1.384-0.139-2.061c-0.451-1.843-0.903-3.686-1.354-5.529
										c-0.158-0.645-0.322-1.305-0.693-1.856c-2.012-2.994-4.227,1.398-4.965,2.894
										C111.576,205.504,111.232,208.939,112.156,212.038z"/>
									<path style="fill:#E8BFBF;" d="M117.087,214.686c1.131,1.478,2.801,2.446,4.646,2.693c2.45,0.303,3.311-1.976,2.329-4.094
										c-0.887-1.911-3.231-4.362-5.542-3.718C116.207,210.212,115.711,212.847,117.087,214.686z"/>
									<path style="fill:#263238;" d="M133.003,199.271c-0.03,0.191-0.179,0.342-0.37,0.374c-2.032,0.385-3.161,2.798-3.168,2.818
										c-0.102,0.225-0.366,0.324-0.59,0.223c-0.225-0.102-0.324-0.366-0.223-0.59c0.086-0.087,1.332-2.86,3.809-3.334
										c0.241-0.043,0.473,0.115,0.521,0.356C133,199.167,133.008,199.219,133.003,199.271z"/>
									<g>
										<path style="fill:#263238;" d="M138.335,197.272c-0.157-0.016-0.3,0.021-0.378,0.099c-0.112,0.122-0.474,0.33-0.266,0.435
											c1.221,0.629,2.909,1.644,4.208,1.438c0.217-0.045,0.739-0.235,0.627-0.389c-0.112-0.155-0.379-0.244-0.596-0.199
											c-1.035,0.149-2.405-0.822-3.367-1.322C138.492,197.302,138.414,197.281,138.335,197.272z"/>
									</g>
									<path style="fill:#263238;" d="M133.142,203.903l1.544-0.966C134.686,202.937,134.2,204.493,133.142,203.903z"/>
								</g>
								<g>
									<path style="fill:#263238;" d="M133.004,186.282c-3.417-0.621-3.851-0.847-7.317-0.632
										c-3.466,0.215-6.964,1.215-9.691,3.364c-2.659,2.095-4.441,5.183-5.289,8.461c-0.848,3.277-0.806,6.739-0.257,10.079
										c0.257,1.562,0.697,3.229,1.936,4.214c0.181-1.791,0.365-3.597,0.916-5.311c0.551-1.714,1.504-3.35,2.96-4.408
										c0.584-0.424,1.269-0.782,1.602-1.422c0.287-0.55,0.256-1.204,0.359-1.816c0.235-1.398,1.192-2.589,2.335-3.427
										c1.143-0.839,2.471-1.379,3.772-1.941c4.207-1.818,8.801-2.854,12.683-5.289
										C136.056,187.327,133.004,186.282,133.004,186.282z"/>
								</g>
								<path style="fill:#263238;" d="M115.551,199.665c0.91,1.098,2.179,1.901,3.569,2.22c1.659,0.382,5.808,0.289,6.057-0.147
									c0.297-0.521-1.224-5.092-2.903-5.371c1.23,1.031,2.511,2.09,4.057,2.522c1.546,0.431,4.158,0.222,5.204-0.024
									c0.871-0.205-1.091-3.841-2.521-4.884c4.311,0.9,8.865,1.925,12.041,4.975c3.267,3.137,4.472,7.936,4.311,12.463
									c1.476-1.161,2.359-3.039,2.312-4.917c1.537,4.664,1.065,9.954-1.272,14.273c4.586-3.76,6.299-10.332,5.093-16.139
									c-1.207-5.806-4.981-10.844-9.609-14.552c-3.958-3.171-8.76-5.54-13.83-5.659
									C121.373,184.268,109.052,191.83,115.551,199.665z"/>
							</g>
							<g>
								<g>
									<path style="fill:#E8BFBF;" d="M120.939,226.396c0.039-0.33,0.078-0.762,0.118-1.231c0.185-2.186-1.316-4.158-3.473-4.554
										c-0.018-0.003-0.036-0.007-0.054-0.01c-0.629-0.115-1.147-0.558-1.357-1.163c-0.776-2.24-1.074-2.919-1.816-5.121
										c-2.022-0.486-4.403,0.259-6.498,0.484c-0.579,2.499-0.619,5.121-0.115,7.637c0.112,0.559,0.263,1.137,0.64,1.565
										c0.377,0.428,4.457,3.311,6.237,3.841C116.474,228.397,119.014,226.575,120.939,226.396z"/>
								</g>
								<g>
									<path style="fill:#E8BFBF;" d="M114.881,227.902c0,0-5.509,35.546,0.165,40.964c3.336,3.185,6.215,1.428,8.021-0.562
										c1.344-1.48,1.945-3.491,1.739-5.48l-3.867-36.429C120.939,226.396,117.116,224.177,114.881,227.902z"/>
								</g>
							</g>
							<g>
								<path style="fill:#E8BFBF;" d="M174.077,259.976c2.214-1.698,4.17-5.226,4.663-7.472c0.156-0.72,0.219-1.8,0.203-3.106
									c-0.055-6.439-1.87-18.245-1.87-18.245l-5.234-1.729c0,0-1.627,8.982-1.987,13.919c-0.07,0.97-0.18,2.112-0.297,3.317
									c-0.235,2.199-0.516,4.624-0.767,6.627L174.077,259.976z"/>
								<g>
									<path style="fill:#263238;" d="M177.073,263.771c1.604-1.471,1.878-3.247,2.707-7.042c0.79-3.583-0.102-7.957-0.837-7.331
										c-0.07,0.055-0.141,0.164-0.203,0.313c-1.267,2.996-6.212,0.368-7.613-1.127c-0.548-0.587-1.205-1.244-1.573-1.925
										c-0.344-0.61-0.446-1.228-0.039-1.823c-1.518-0.626-2.738,5.352-2.011,6.823l0.37,1.107
										c0.603,1.802,1.536,3.477,2.749,4.939l2.749,3.311L177.073,263.771z"/>
								</g>
								<path style="fill:#E8BFBF;" d="M171.704,230.188l-0.625-9.133c0,0,1.074,0.594,5.048,1.945
									c2.546,0.865,5.971-0.662,5.208,0.989c-1.244,2.69-4.26,7.164-4.26,7.164L171.704,230.188z"/>
								<path style="fill:#E8BFBF;" d="M171.078,221.055l3.895-9.152l5.115,3.132c1.41,3.058,1.244,8.954,1.244,8.954
									S174.243,224.31,171.078,221.055z"/>
							</g>
						</g>
					</g>
				</g>
			</g>
			<path style="fill:#263238;" d="M137.311,214.007c0.133,0.655,0.598,1.11,1.025,1.015c0.427-0.095,0.655-0.693,0.512-1.347
				c-0.142-0.655-0.598-1.101-1.025-1.006C137.397,212.764,137.169,213.39,137.311,214.007z"/>
		</g>
		<g>
			<g>
				<path style="fill:#407BFF;" d="M124.625,338.251l-3.087-45.039c-0.445-6.36-3.541-11.661-7.841-14.173
					c-2.713-2.136-5.984-3.464-9.507-3.685c-0.366-0.039-0.733-0.048-1.099-0.048c-2.861,0-5.573,0.722-7.981,2.03
					c-0.079,0.029-0.148,0.077-0.227,0.116c-2.495,1.376-4.666,3.348-6.359,5.773l-0.009,0.01
					c-2.372,3.416-3.794,7.688-3.794,12.335c0,10.007,6.585,18.339,15.238,19.965l3.34,48.724c0.288,4.147,3.009,7.322,6.28,7.322
					h16.773L124.625,338.251z"/>
			</g>
			<path style="opacity:0.1;fill:#FFFFFF;" d="M124.625,338.251l-3.087-45.039c-0.445-6.36-3.541-11.661-7.841-14.173
				c-2.713-2.136-5.984-3.464-9.507-3.685c-0.366-0.039-0.733-0.048-1.099-0.048c-2.861,0-5.573,0.722-7.981,2.03
				c-0.079,0.029-0.148,0.077-0.227,0.116c-2.495,1.376-4.666,3.348-6.359,5.773l-0.009,0.01c-2.372,3.416-3.794,7.688-3.794,12.335
				c0,10.007,6.585,18.339,15.238,19.965l3.34,48.724c0.288,4.147,3.009,7.322,6.28,7.322h16.773L124.625,338.251z"/>
		</g>
	</g>
</g>
<g id="Table">
	<g>
		<g>
			<g>
				<ellipse style="fill:#263238;" cx="244.161" cy="411.887" rx="33.542" ry="8.578"/>
				<ellipse style="opacity:0.3;fill:#FFFFFF;" cx="244.161" cy="410.461" rx="33.542" ry="7.153"/>
			</g>
			<g>
				<polygon style="fill:#263238;" points="246.929,410.453 241.394,410.453 234.989,341.431 253.333,341.431 				"/>
				<path style="fill:#263238;" d="M253.333,341.431c0,2.01-4.106,3.64-9.172,3.64c-5.066,0-9.172-1.63-9.172-3.64
					c0-2.01,4.107-3.64,9.172-3.64C249.227,337.791,253.333,339.42,253.333,341.431z"/>
				<path style="opacity:0.7;fill:#FFFFFF;" d="M253.333,341.431c0,2.01-4.106,3.64-9.172,3.64c-5.066,0-9.172-1.63-9.172-3.64
					c0-2.01,4.107-3.64,9.172-3.64C249.227,337.791,253.333,339.42,253.333,341.431z"/>
			</g>
			<g>
				<path style="opacity:0.7;fill:#FFFFFF;" d="M132.04,342.51c0-0.73,0.36-1.45,1.07-2.16c7.75,7.8,56.92,13.81,116.42,13.81
					s108.67-6.01,116.43-13.81c0.71,0.71,1.07,1.43,1.07,2.16c0,8.81-52.61,15.96-117.5,15.96
					C184.64,358.47,132.04,351.32,132.04,342.51z"/>
				<g>
					<path style="opacity:0.7;fill:#FFFFFF;" d="M133.11,344.501c7.75-7.8,56.92-13.8,116.42-13.8s108.67,6,116.43,13.8
						c-7.76,7.8-56.93,13.81-116.43,13.81S140.86,352.301,133.11,344.501z"/>
					<path style="opacity:0.7;fill:#FFFFFF;" d="M132.04,342.2c0-8.82,52.6-15.96,117.49-15.96c64.89,0,117.5,7.14,117.5,15.96
						c0,0.73-0.36,1.45-1.07,2.15c-7.76-7.8-56.93-13.8-116.43-13.8s-108.67,6-116.42,13.8C132.4,343.65,132.04,342.93,132.04,342.2
						z"/>
				</g>
			</g>
		</g>
		<g>
			<g>
				<g>
					<g>
						<g>
							<path style="fill:#263238;" d="M294.849,334.427l-49.156-0.927c-0.508-0.01-0.912-0.512-0.898-1.117l0,0
								c0.014-0.605,0.441-1.092,0.949-1.082l49.156,0.927c0.508,0.01,0.912,0.512,0.898,1.117l0,0
								C295.784,333.95,295.357,334.437,294.849,334.427z"/>
							<path style="opacity:0.2;fill:#FFFFFF;" d="M294.849,334.427l-49.156-0.927c-0.508-0.01-0.912-0.512-0.898-1.117l0,0
								c0.014-0.605,0.441-1.092,0.949-1.082l49.156,0.927c0.508,0.01,0.912,0.512,0.898,1.117l0,0
								C295.784,333.95,295.357,334.437,294.849,334.427z"/>
							<path style="fill:#263238;" d="M318.725,330.841l-23.502,3.552c-0.505,0.076-0.966-0.352-1.023-0.953l0,0
								c-0.058-0.6,0.308-1.153,0.812-1.229l23.503-3.553c0.505-0.076,0.965,0.352,1.023,0.952l0,0
								C319.595,330.211,319.23,330.764,318.725,330.841z"/>
							<g>
								<polygon style="fill:#263238;" points="318.515,328.658 268.829,328.658 245.744,331.301 293.561,332.203 								"/>
								<polygon style="opacity:0.6;fill:#FFFFFF;" points="318.515,328.658 268.829,328.658 245.744,331.301 293.561,332.203 
																	"/>
							</g>
							<path style="opacity:0.5;fill:#FFFFFF;" d="M318.725,330.841l-23.502,3.552c-0.505,0.076-0.966-0.352-1.023-0.953l0,0
								c-0.058-0.6,0.308-1.153,0.812-1.229l23.503-3.553c0.505-0.076,0.965,0.352,1.023,0.952l0,0
								C319.595,330.211,319.23,330.764,318.725,330.841z"/>
						</g>
						<g>
							<path style="fill:#407BFF;" d="M293.561,332.203l-45.836-0.865c-1.618-0.03-3.02-1.633-3.116-3.562l-1.382-27.673
								c-0.096-1.929,1.148-3.482,2.766-3.451l45.836,0.865c1.618,0.031,3.02,1.634,3.116,3.562l1.381,27.673
								C296.423,330.68,295.178,332.233,293.561,332.203z"/>
							<path style="opacity:0.2;fill:#FFFFFF;" d="M293.561,332.203l-45.836-0.865c-1.618-0.03-3.02-1.633-3.116-3.562
								l-1.382-27.673c-0.096-1.929,1.148-3.482,2.766-3.451l45.836,0.865c1.618,0.031,3.02,1.634,3.116,3.562l1.381,27.673
								C296.423,330.68,295.178,332.233,293.561,332.203z"/>
						</g>
						<g>
							<path style="fill:#407BFF;" d="M292.215,332.059l-45.836-0.865c-1.618-0.03-3.02-1.633-3.116-3.562l-1.381-27.673
								c-0.096-1.929,1.148-3.482,2.766-3.451l45.836,0.865c1.618,0.03,3.02,1.633,3.116,3.562l1.382,27.673
								C295.077,330.536,293.833,332.089,292.215,332.059z"/>
							<path style="opacity:0.6;fill:#FFFFFF;" d="M292.215,332.059l-45.836-0.865c-1.618-0.03-3.02-1.633-3.116-3.562
								l-1.381-27.673c-0.096-1.929,1.148-3.482,2.766-3.451l45.836,0.865c1.618,0.03,3.02,1.633,3.116,3.562l1.382,27.673
								C295.077,330.536,293.833,332.089,292.215,332.059z"/>
						</g>
					</g>
				</g>
				<path style="fill:#FFFFFF;" d="M262.356,313.825c0.235,2.687,2.604,4.865,5.29,4.865c2.687,0,4.674-2.178,4.439-4.865
					c-0.235-2.687-2.604-4.865-5.29-4.865C264.109,308.961,262.121,311.139,262.356,313.825z"/>
			</g>
		</g>
	</g>
</g>
</svg>
