<?xml version="1.0" encoding="utf-8"?><!-- Uploaded to: SVG Repo, www.svgrepo.com, Generator: SVG Repo Mixer Tools -->
<svg width="800px" height="800px" viewBox="0 0 24 24" fill="none" xmlns="http://www.w3.org/2000/svg">
<path d="M10.87 3.14669L10.6785 2.42157V2.42157L10.87 3.14669ZM13.13 3.14669L12.9385 3.87181V3.87181L13.13 3.14669ZM11.0616 3.87181C11.6763 3.7094 12.3237 3.7094 12.9385 3.87181L13.3216 2.42157C12.4558 2.19281 11.5443 2.19281 10.6785 2.42157L11.0616 3.87181ZM16.9271 7.06315C16.9271 4.88128 15.4419 2.98176 13.3216 2.42157L12.9385 3.87181C14.4126 4.26128 15.4271 5.57456 15.4271 7.06315H16.9271ZM8.573 7.06315C8.573 5.57455 9.58745 4.26128 11.0616 3.87181L10.6785 2.42157C8.55811 2.98176 7.073 4.88127 7.073 7.06315H8.573Z" fill="#0095FF"/>
<path d="M3.3835 16.403L4.10471 16.1972L3.3835 16.403ZM3.37998 10.936L4.10118 11.1419L3.37998 10.936ZM20.62 10.936L19.8988 11.1419V11.1419L20.62 10.936ZM20.6165 16.403L21.3377 16.6088L20.6165 16.403ZM15.9929 20.6186L15.8509 19.8822L15.9929 20.6186ZM8.00711 20.6186L8.1491 19.8822L8.00711 20.6186ZM8.77297 6.56038L8.91496 7.29682L8.77297 6.56038ZM15.227 6.56038L15.369 5.82394L15.227 6.56038ZM16.3006 6.76737L16.1586 7.50381L16.3006 6.76737ZM20.527 10.6102L21.2482 10.4044V10.4044L20.527 10.6102ZM7.69941 6.76737L7.55742 6.03094V6.03094L7.69941 6.76737ZM3.47297 10.6102L2.75176 10.4044H2.75176L3.47297 10.6102ZM7.8414 7.50381L8.91496 7.29682L8.63098 5.82394L7.55742 6.03094L7.8414 7.50381ZM15.085 7.29682L16.1586 7.50381L16.4426 6.03093L15.369 5.82394L15.085 7.29682ZM19.8058 10.816L19.8988 11.1419L21.3412 10.7302L21.2482 10.4044L19.8058 10.816ZM4.10118 11.1419L4.19418 10.816L2.75176 10.4044L2.65877 10.7302L4.10118 11.1419ZM4.10471 16.1972C3.63385 14.5472 3.63087 12.7899 4.10118 11.1419L2.65877 10.7302C2.11113 12.6493 2.1152 14.6917 2.66229 16.6088L4.10471 16.1972ZM19.8988 11.1419C20.3691 12.7899 20.3662 14.5472 19.8953 16.1972L21.3377 16.6088C21.8848 14.6917 21.8889 12.6493 21.3412 10.7302L19.8988 11.1419ZM15.8509 19.8822C13.3077 20.3726 10.6923 20.3726 8.1491 19.8822L7.86512 21.3551C10.5959 21.8816 13.4041 21.8816 16.1349 21.3551L15.8509 19.8822ZM8.91496 7.29682C10.9524 6.90399 13.0477 6.90399 15.085 7.29682L15.369 5.82394C13.144 5.39495 10.856 5.39495 8.63098 5.82394L8.91496 7.29682ZM8.1491 19.8822C6.20493 19.5074 4.63939 18.0708 4.10471 16.1972L2.66229 16.6088C3.3533 19.0303 5.36966 20.8739 7.86512 21.3551L8.1491 19.8822ZM16.1349 21.3551C18.6303 20.8739 20.6467 19.0302 21.3377 16.6088L19.8953 16.1972C19.3606 18.0708 17.7951 19.5074 15.8509 19.8822L16.1349 21.3551ZM16.1586 7.50381C17.9164 7.84273 19.3239 9.12715 19.8058 10.816L21.2482 10.4044C20.6087 8.16323 18.747 6.47525 16.4426 6.03093L16.1586 7.50381ZM7.55742 6.03094C5.25297 6.47525 3.39132 8.16323 2.75176 10.4044L4.19418 10.816C4.67613 9.12715 6.08361 7.84273 7.8414 7.50381L7.55742 6.03094ZM3.38575 11.7917C8.93989 13.8461 15.0601 13.8461 20.6143 11.7917L20.0939 10.3849C14.8755 12.3151 9.12447 12.3151 3.90612 10.3849L3.38575 11.7917Z" fill="#363853"/>
<path d="M8 10.5V14" stroke="#0095FF" stroke-width="1.5" stroke-linecap="round"/>
<path d="M16 10.5V14" stroke="#0095FF" stroke-width="1.5" stroke-linecap="round"/>
</svg>