<?xml version="1.0" encoding="utf-8"?>
<!-- Uploaded to: SVG Repo, www.svgrepo.com, Generator: SVG Repo Mixer Tools -->
<svg width="800px" height="800px" viewBox="0 0 1024 1024" class="icon"  version="1.1" xmlns="http://www.w3.org/2000/svg"><path d="M859.2 352c40 0 72-32 72-72 0 39.76-32.24 72-72 72zM787.2 280c0 40 32 72 72 72-39.76 0-72-32.24-72-72zM424.592 500.864c16.976 25.056 44.448 42.56 76.608 45.792-31.856-3.232-59.504-20.64-76.608-45.792zM859.2 208c39.76 0 72 32.24 72 72 0-40-32-72-72-72z" fill="#E8E8E8" /><path d="M859.2 406.4c81.632 0 149.792 66.464 162.512 153.28 1.456-15.696 2.288-31.584 2.288-47.68 0-88.08-22.256-170.976-61.44-243.36 0.4 3.728 0.64 7.52 0.64 11.36 0 57.6-46.4 104-104 104s-104-46.4-104-104 46.4-104 104-104c17.984 0 34.864 4.528 49.584 12.496C814.912 73.472 672.048 0 512 0S209.088 73.472 115.216 188.496C129.936 180.528 146.816 176 164.8 176c57.6 0 104 46.4 104 104s-46.4 104-104 104-104-46.4-104-104c0-3.84 0.24-7.632 0.64-11.36C22.256 341.024 0 423.92 0 512c0 16.096 0.832 31.984 2.288 47.68 12.72-86.816 80.88-153.28 162.512-153.28 89.6 0 161.6 80 163.2 179.2H5.344C41.04 833.488 254.24 1024 512 1024s470.96-190.512 506.656-438.4H694.4c1.6-99.2 75.2-179.2 164.8-179.2z m-347.2-104c76.8 0 137.6 62.4 137.6 137.6s-62.4 137.6-137.6 137.6-137.6-62.4-137.6-137.6 60.8-137.6 137.6-137.6zM731.2 848H292.8C296 715.2 392 609.6 512 609.6S728 715.2 731.2 848z" fill="#E8E8E8" /><path d="M522.8 546.656c32.144-3.232 59.632-20.736 76.608-45.792-17.104 25.152-44.752 42.56-76.608 45.792zM859.2 208c-40 0-72 32-72 72 0-39.76 32.24-72 72-72zM452.656 354.256c-25.008 16.976-42.48 44.432-45.712 76.528 3.232-31.792 20.592-59.424 45.712-76.528z" fill="#E8E8E8" /><path d="M419.088 491.808c0.448 0.832 0.992 1.6 1.456 2.432 1.248 2.16 2.496 4.336 3.888 6.4 0.048 0.08 0.112 0.144 0.176 0.224 17.088 25.152 44.752 42.56 76.608 45.792 3.536 0.352 7.136 0.544 10.784 0.544s7.248-0.192 10.8-0.544c31.856-3.232 59.504-20.64 76.608-45.792 0.048-0.08 0.112-0.144 0.176-0.224 1.392-2.064 2.64-4.24 3.888-6.4 0.464-0.816 1.008-1.6 1.456-2.432 0.848-1.584 1.568-3.248 2.336-4.864 0.704-1.472 1.472-2.912 2.112-4.416 0.496-1.168 0.864-2.4 1.312-3.6 0.768-2.032 1.568-4.032 2.224-6.112 0.288-0.912 0.464-1.872 0.72-2.8 0.672-2.4 1.344-4.8 1.856-7.264 0.256-1.216 0.368-2.48 0.576-3.728 0.368-2.224 0.784-4.416 1.008-6.672 0.352-3.52 0.544-7.104 0.544-10.72 0-57.6-48-105.6-105.6-105.6-3.616 0-7.184 0.192-10.72 0.544-2.272 0.224-4.496 0.64-6.72 1.024-1.216 0.208-2.48 0.32-3.68 0.56-2.496 0.512-4.912 1.2-7.344 1.872-0.896 0.256-1.84 0.432-2.72 0.704-2.112 0.656-4.16 1.472-6.224 2.256-1.168 0.448-2.368 0.8-3.504 1.28-1.536 0.64-2.976 1.424-4.48 2.128-1.616 0.768-3.248 1.472-4.816 2.32-0.848 0.448-1.632 0.992-2.448 1.472-2.16 1.248-4.304 2.48-6.368 3.872-0.112 0.08-0.208 0.16-0.32 0.24-25.104 17.088-42.48 44.72-45.712 76.528-0.368 3.52-0.56 7.12-0.56 10.768 0 3.616 0.192 7.2 0.544 10.72 0.224 2.256 0.64 4.464 1.008 6.672 0.208 1.232 0.32 2.496 0.576 3.728 0.496 2.464 1.184 4.864 1.856 7.264 0.256 0.928 0.432 1.888 0.72 2.8 0.64 2.08 1.456 4.096 2.224 6.112 0.448 1.2 0.832 2.432 1.312 3.6 0.64 1.504 1.408 2.944 2.112 4.416 0.768 1.648 1.472 3.312 2.336 4.896z" fill="#FAD97F" /><path d="M512 577.6c75.2 0 137.6-62.4 137.6-137.6s-60.8-137.6-137.6-137.6-137.6 62.4-137.6 137.6 62.4 137.6 137.6 137.6z m-98.688-98.688c-0.768-2.032-1.568-4.032-2.224-6.112-0.288-0.912-0.464-1.872-0.72-2.8-0.672-2.4-1.344-4.8-1.856-7.264-0.256-1.216-0.368-2.48-0.576-3.728-0.368-2.224-0.784-4.416-1.008-6.672a107.818 107.818 0 0 1-0.544-10.72c0-3.648 0.192-7.248 0.544-10.8 3.232-32.112 20.704-59.552 45.712-76.528 0.112-0.08 0.208-0.16 0.32-0.24 2.048-1.392 4.208-2.624 6.368-3.872 0.832-0.48 1.616-1.024 2.448-1.472 1.568-0.848 3.216-1.552 4.816-2.32 1.488-0.704 2.944-1.488 4.48-2.128 1.136-0.48 2.336-0.848 3.504-1.28 2.064-0.784 4.096-1.6 6.224-2.256 0.896-0.272 1.824-0.448 2.72-0.704 2.432-0.672 4.864-1.36 7.344-1.872 1.216-0.24 2.464-0.352 3.68-0.56 2.224-0.368 4.448-0.784 6.72-1.024 3.552-0.368 7.12-0.56 10.736-0.56 57.6 0 105.6 48 105.6 105.6 0 3.616-0.192 7.2-0.544 10.72-0.224 2.256-0.64 4.464-1.008 6.672-0.208 1.232-0.32 2.496-0.576 3.728-0.496 2.464-1.184 4.864-1.856 7.264-0.256 0.928-0.432 1.888-0.72 2.8-0.64 2.08-1.456 4.096-2.224 6.112-0.448 1.2-0.832 2.432-1.312 3.6-0.64 1.504-1.408 2.944-2.112 4.416-0.768 1.632-1.488 3.296-2.336 4.864-0.448 0.832-0.992 1.6-1.456 2.432-1.248 2.16-2.496 4.336-3.888 6.4-0.048 0.08-0.112 0.144-0.176 0.224-16.976 25.056-44.448 42.56-76.608 45.792-3.536 0.384-7.136 0.576-10.784 0.576s-7.248-0.192-10.8-0.544c-32.144-3.232-59.632-20.736-76.608-45.792-0.048-0.08-0.112-0.144-0.176-0.224-1.392-2.064-2.64-4.24-3.888-6.4-0.464-0.816-1.008-1.6-1.456-2.432-0.848-1.584-1.568-3.248-2.336-4.864-0.704-1.472-1.472-2.912-2.112-4.416-0.48-1.184-0.864-2.416-1.312-3.616z" fill="" /><path d="M512 641.6c-91.2 0-168 75.2-184 174.4h368c-16-99.2-92.8-174.4-184-174.4z" fill="#FAD97F" /><path d="M512 609.6c-120 0-216 105.6-219.2 238.4h438.4C728 715.2 632 609.6 512 609.6zM328 816c16-99.2 92.8-174.4 184-174.4s168 75.2 184 174.4H328z" fill="" /><path d="M164.8 208c-40 0-72 32-72 72s32 72 72 72 72-32 72-72-32-72-72-72z" fill="#FFFFFF" /><path d="M164.8 384c57.6 0 104-46.4 104-104s-46.4-104-104-104c-17.984 0-34.864 4.528-49.584 12.496a103.69 103.69 0 0 0-53.76 80.144A102.408 102.408 0 0 0 60.8 280c0 57.6 46.4 104 104 104z m0-32c-40 0-72-32-72-72s32-72 72-72 72 32 72 72-32 72-72 72z" fill="" /><path d="M164.8 438.4c-62.4 0-115.2 49.6-129.6 115.2h257.6c-14.4-65.6-65.6-115.2-128-115.2z" fill="#FFFFFF" /><path d="M164.8 406.4c-81.632 0-149.792 66.464-162.512 153.28C1.04 568.16 0.144 576.768 0 585.6h328c-1.6-99.2-73.6-179.2-163.2-179.2z m0 32c62.4 0 113.6 49.6 128 115.2H35.2c14.4-65.6 67.2-115.2 129.6-115.2z" fill="" /><path d="M859.2 280m-72 0a72 72 0 1 0 144 0 72 72 0 1 0-144 0Z" fill="#FFFFFF" /><path d="M755.2 280c0 57.6 46.4 104 104 104s104-46.4 104-104c0-3.84-0.24-7.632-0.64-11.36-3.744-34.752-24.464-64.288-53.76-80.144C894.064 180.528 877.184 176 859.2 176c-57.6 0-104 46.4-104 104z m104 72c-40 0-72-32-72-72s32-72 72-72 72 32 72 72-32 72-72 72z" fill="" /><path d="M860 435.648c-0.288 0-0.56-0.048-0.832-0.048-63.744 0-119.104 52-134.208 120.784h268.416a180.48 180.48 0 0 0-3.264-12.64c-18.48-62.112-69.136-107.68-130.112-108.096z" fill="#FFFFFF" /><path d="M1021.712 559.68c-12.72-86.816-80.88-153.28-162.512-153.28-89.6 0-163.2 80-164.8 179.2H1024c-0.144-8.832-1.04-17.44-2.288-25.92z m-295.088-3.28h-1.664c15.104-68.784 70.464-120.784 134.208-120.784 0.288 0 0.56 0.048 0.832 0.048 60.976 0.416 111.632 45.984 130.112 108.112a180.48 180.48 0 0 1 3.264 12.64H726.624v-0.016z" fill="" /></svg>